<svg width="94" height="82" viewBox="0 0 94 82" version="1.1" xmlns="http://www.w3.org/2000/svg" xmlns:xlink="http://www.w3.org/1999/xlink" xmlns:figma="http://www.figma.com/figma/ns">
<title>image</title>
<desc>Created using Figma</desc>
<g id="Canvas" transform="translate(-424 159)" figma:type="canvas">
<g id="image" style="mix-blend-mode:normal;" figma:type="frame">
<g id="Rectangle 4" style="mix-blend-mode:normal;" figma:type="vector">
<g filter="url(#filter0_i)" figma:type="fill">
<use xlink:href="#path0_fill" transform="translate(425 -158)" fill="#FAFAFA" style="mix-blend-mode:normal;"/>
</g>
<use xlink:href="#path1_stroke" transform="translate(425 -158)" fill="#2F80ED" style="mix-blend-mode:normal;"/>
</g>
<g id="Ai" style="mix-blend-mode:normal;" figma:type="vector">
<use xlink:href="#path2_fill" transform="matrix(0.965926 -0.258819 0.258819 0.965926 433.359 -142.767)" fill="#2F80ED" style="mix-blend-mode:normal;"/>
<use xlink:href="#path3_fill" transform="matrix(0.965926 -0.258819 0.258819 0.965926 433.359 -142.767)" fill="#2F80ED" style="mix-blend-mode:normal;"/>
</g>
<g id="Union" style="mix-blend-mode:normal;" filter="url(#filter1_i)" figma:type="vector">
<use xlink:href="#path4_fill" transform="translate(436.575 -144.587)" fill="#FAFAFA" style="mix-blend-mode:normal;"/>
</g>
<g id="Union" style="mix-blend-mode:normal;" figma:type="vector">
<use xlink:href="#path5_fill" transform="translate(436.575 -144.587)" fill="#2F80ED" style="mix-blend-mode:normal;"/>
<use xlink:href="#path6_fill" transform="translate(436.575 -144.587)" fill="#2F80ED" style="mix-blend-mode:normal;"/>
</g>
<g id="Union" style="mix-blend-mode:normal;" filter="url(#filter2_i)" figma:type="vector">
<use xlink:href="#path4_fill" transform="matrix(-1 0 0 1 496.671 -144.587)" fill="#FAFAFA" style="mix-blend-mode:normal;"/>
</g>
<g id="Union" style="mix-blend-mode:normal;" figma:type="vector">
<use xlink:href="#path5_fill" transform="matrix(-1 0 0 1 496.671 -144.587)" fill="#2F80ED" style="mix-blend-mode:normal;"/>
<use xlink:href="#path6_fill" transform="matrix(-1 0 0 1 496.671 -144.587)" fill="#2F80ED" style="mix-blend-mode:normal;"/>
</g>
<g id="Vector" style="mix-blend-mode:normal;" figma:type="vector">
<g filter="url(#filter3_i)" figma:type="fill">
<use xlink:href="#path7_fill" transform="translate(482.429 -155.139)" fill="#FAFAFA" style="mix-blend-mode:normal;"/>
</g>
<use xlink:href="#path8_stroke" transform="translate(482.429 -155.139)" fill="#2F80ED" style="mix-blend-mode:normal;"/>
</g>
<g id="Vector" style="mix-blend-mode:normal;" figma:type="vector">
<g filter="url(#filter4_i)" figma:type="fill">
<use xlink:href="#path9_fill" transform="translate(430.543 -100.889)" fill="#FAFAFA" style="mix-blend-mode:normal;"/>
</g>
<use xlink:href="#path10_stroke" transform="translate(430.543 -100.889)" fill="#2F80ED" style="mix-blend-mode:normal;"/>
</g>
<g id="?" style="mix-blend-mode:normal;" figma:type="vector">
<use xlink:href="#path11_fill" transform="translate(439.128 -94.3533)" fill="#2F80ED" style="mix-blend-mode:normal;"/>
</g>
<g id="!" style="mix-blend-mode:normal;" figma:type="vector">
<use xlink:href="#path12_fill" transform="translate(497.959 -145.93)" fill="#2F80ED" style="mix-blend-mode:normal;"/>
</g>
</g>
</g>
<defs>
<filter id="filter0_i" filterUnits="userSpaceOnUse" x="424" y="-159" width="42" height="42" color-interpolation-filters="sRGB">
<feFlood flood-opacity="0" result="BackgroundImageFix"/>
<feBlend mode="normal" in="SourceGraphic" in2="BackgroundImageFix" result="shape"/>
<desc>type="innerShadow" x="0" y="-4" size="0" spread="0" color="0,0,0,0.05" blend="normal"</desc>
<feColorMatrix in="SourceAlpha" type="matrix" values="0 0 0 0 0 0 0 0 0 0 0 0 0 0 0 0 0 0 255 0" result="hardAlpha"/>
<feOffset dx="0" dy="-4"/>
<feComposite in2="hardAlpha" operator="arithmetic" k2="-1" k3="1"/>
<feColorMatrix type="matrix" values="0 0 0 0 0 0 0 0 0 0 0 0 0 0 0 0 0 0 0.05 0"/>
<feBlend mode="normal" in2="shape" result="effect1_innerShadow"/>
</filter>
<filter id="filter1_i" filterUnits="userSpaceOnUse" x="436" y="-145" width="32" height="54" color-interpolation-filters="sRGB">
<feFlood flood-opacity="0" result="BackgroundImageFix"/>
<feBlend mode="normal" in="SourceGraphic" in2="BackgroundImageFix" result="shape"/>
<desc>type="innerShadow" x="0" y="-4" size="0" spread="0" color="0,0,0,0.05" blend="normal"</desc>
<feColorMatrix in="SourceAlpha" type="matrix" values="0 0 0 0 0 0 0 0 0 0 0 0 0 0 0 0 0 0 255 0" result="hardAlpha"/>
<feOffset dx="0" dy="-4"/>
<feComposite in2="hardAlpha" operator="arithmetic" k2="-1" k3="1"/>
<feColorMatrix type="matrix" values="0 0 0 0 0 0 0 0 0 0 0 0 0 0 0 0 0 0 0.05 0"/>
<feBlend mode="normal" in2="shape" result="effect1_innerShadow"/>
</filter>
<filter id="filter2_i" filterUnits="userSpaceOnUse" x="466" y="-145" width="31" height="54" color-interpolation-filters="sRGB">
<feFlood flood-opacity="0" result="BackgroundImageFix"/>
<feBlend mode="normal" in="SourceGraphic" in2="BackgroundImageFix" result="shape"/>
<desc>type="innerShadow" x="0" y="-4" size="0" spread="0" color="0,0,0,0.05" blend="normal"</desc>
<feColorMatrix in="SourceAlpha" type="matrix" values="0 0 0 0 0 0 0 0 0 0 0 0 0 0 0 0 0 0 255 0" result="hardAlpha"/>
<feOffset dx="0" dy="-4"/>
<feComposite in2="hardAlpha" operator="arithmetic" k2="-1" k3="1"/>
<feColorMatrix type="matrix" values="0 0 0 0 0 0 0 0 0 0 0 0 0 0 0 0 0 0 0.05 0"/>
<feBlend mode="normal" in2="shape" result="effect1_innerShadow"/>
</filter>
<filter id="filter3_i" filterUnits="userSpaceOnUse" x="481" y="-156" width="37" height="37" color-interpolation-filters="sRGB">
<feFlood flood-opacity="0" result="BackgroundImageFix"/>
<feBlend mode="normal" in="SourceGraphic" in2="BackgroundImageFix" result="shape"/>
<desc>type="innerShadow" x="-2" y="-4" size="0" spread="0" color="0,0,0,0.05" blend="normal"</desc>
<feColorMatrix in="SourceAlpha" type="matrix" values="0 0 0 0 0 0 0 0 0 0 0 0 0 0 0 0 0 0 255 0" result="hardAlpha"/>
<feOffset dx="-2" dy="-4"/>
<feComposite in2="hardAlpha" operator="arithmetic" k2="-1" k3="1"/>
<feColorMatrix type="matrix" values="0 0 0 0 0 0 0 0 0 0 0 0 0 0 0 0 0 0 0.05 0"/>
<feBlend mode="normal" in2="shape" result="effect1_innerShadow"/>
</filter>
<filter id="filter4_i" filterUnits="userSpaceOnUse" x="430" y="-102" width="25" height="25" color-interpolation-filters="sRGB">
<feFlood flood-opacity="0" result="BackgroundImageFix"/>
<feBlend mode="normal" in="SourceGraphic" in2="BackgroundImageFix" result="shape"/>
<desc>type="innerShadow" x="-2" y="-4" size="0" spread="0" color="0,0,0,0.05" blend="normal"</desc>
<feColorMatrix in="SourceAlpha" type="matrix" values="0 0 0 0 0 0 0 0 0 0 0 0 0 0 0 0 0 0 255 0" result="hardAlpha"/>
<feOffset dx="-2" dy="-4"/>
<feComposite in2="hardAlpha" operator="arithmetic" k2="-1" k3="1"/>
<feColorMatrix type="matrix" values="0 0 0 0 0 0 0 0 0 0 0 0 0 0 0 0 0 0 0.05 0"/>
<feBlend mode="normal" in2="shape" result="effect1_innerShadow"/>
</filter>
<path id="path0_fill" d="M 0.157087 12.3066C -0.497131 9.86507 0.951808 7.35543 3.39338 6.70122L 27.8164 0.157087C 30.258 -0.497131 32.7676 0.951808 33.4218 3.39338L 39.966 27.8164C 40.6202 30.258 39.1712 32.7676 36.7297 33.4218L 12.3066 39.966C 9.86507 40.6202 7.35543 39.1712 6.70122 36.7297L 0.157087 12.3066Z"/>
<path id="path1_stroke" d="M 3.39338 6.70122L 3.26397 6.21825L 3.39338 6.70122ZM 27.8164 0.157087L 27.9458 0.64005L 27.8164 0.157087ZM 39.966 27.8164L 40.4489 27.687L 39.966 27.8164ZM 12.3066 39.966L 12.4361 40.4489L 12.3066 39.966ZM 0.157087 12.3066L 0.64005 12.1772L 0.157087 12.3066ZM 33.4218 3.39338L 32.9389 3.52279L 33.4218 3.39338ZM 36.7297 33.4218L 36.6003 32.9389L 36.7297 33.4218ZM 6.70122 36.7297L 6.21825 36.8591L 6.70122 36.7297ZM 3.52279 7.18418L 27.9458 0.64005L 27.687 -0.325876L 3.26397 6.21825L 3.52279 7.18418ZM 32.9389 3.52279L 39.483 27.9458L 40.4489 27.687L 33.9048 3.26397L 32.9389 3.52279ZM 36.6003 32.9389L 12.1772 39.483L 12.4361 40.4489L 36.8591 33.9048L 36.6003 32.9389ZM 7.18418 36.6003L 0.64005 12.1772L -0.325876 12.4361L 6.21825 36.8591L 7.18418 36.6003ZM 3.26397 6.21825C 0.555665 6.94394 -1.05156 9.72775 -0.325876 12.4361L 0.64005 12.1772C 0.0573029 10.0024 1.34795 7.76693 3.52279 7.18418L 3.26397 6.21825ZM 27.9458 0.64005C 30.1207 0.0573029 32.3561 1.34795 32.9389 3.52279L 33.9048 3.26397C 33.1791 0.555666 30.3953 -1.05156 27.687 -0.325876L 27.9458 0.64005ZM 39.483 27.9458C 40.0657 30.1207 38.7751 32.3561 36.6003 32.9389L 36.8591 33.9048C 39.5674 33.1791 41.1746 30.3953 40.4489 27.687L 39.483 27.9458ZM 12.1772 39.483C 10.0024 40.0657 7.76693 38.7751 7.18418 36.6003L 6.21825 36.8591C 6.94394 39.5674 9.72775 41.1746 12.4361 40.4489L 12.1772 39.483Z"/>
<path id="path2_fill" d="M 11.0621 15.3864L 9.59388 11.3035L 3.97231 11.3035L 2.53423 15.3864L 0 15.3864L 5.50089 0.623501L 8.11558 0.623501L 13.6165 15.3864L 11.0621 15.3864ZM 8.96032 9.23184L 7.58258 5.22937C 7.48202 4.96119 7.34123 4.53882 7.16021 3.96225C 6.9859 3.38568 6.86522 2.96331 6.79818 2.69514C 6.61716 3.51977 6.35234 4.4215 6.00372 5.40033L 4.67626 9.23184L 8.96032 9.23184Z"/>
<path id="path3_fill" d="M 17.6692 15.3864L 15.306 15.3864L 15.306 4.26395L 17.6692 4.26395L 17.6692 15.3864ZM 15.1652 1.3174C 15.1652 0.895026 15.2791 0.569866 15.5071 0.34192C 15.7417 0.113974 16.0736 0 16.5027 0C 16.9183 0 17.2402 0.113974 17.4681 0.34192C 17.7027 0.569866 17.8201 0.895026 17.8201 1.3174C 17.8201 1.71966 17.7027 2.03811 17.4681 2.27276C 17.2402 2.50071 16.9183 2.61468 16.5027 2.61468C 16.0736 2.61468 15.7417 2.50071 15.5071 2.27276C 15.2791 2.03811 15.1652 1.71966 15.1652 1.3174Z"/>
<path id="path4_fill" fill-rule="evenodd" d="M 30.6615 42.3128L 30.6615 5.51907C 30.6615 2.47096 28.1905 1.33144e-16 25.1425 5.3807e-33L 25.1425 0C 22.8769 0 20.9302 1.36499 20.08 3.31741C 19.6887 4.21594 18.7654 4.90818 17.7854 4.90585C 17.7843 4.90584 17.7831 4.90584 17.782 4.90584C 13.3799 4.90678 9.81169 8.47557 9.81169 12.8778C 9.81169 13.1304 9.66532 13.3439 9.46641 13.4264C 9.46633 13.4264 9.46626 13.4264 9.46618 13.4265C 3.91019 15.7286 1.00349e-16 21.2046 1.93146e-33 27.5953L 0 27.5953C 0 33.9806 3.9035 39.4527 9.45191 41.7583C 9.45192 41.7583 9.45193 41.7583 9.45194 41.7583C 9.66422 41.8465 9.81169 42.0649 9.81169 42.3128C 9.81169 48.0703 14.479 52.7377 20.2366 52.7377C 25.7854 52.7377 30.3216 48.4027 30.6434 42.9347C 30.6436 42.9299 30.6476 42.9261 30.6524 42.9261C 30.6575 42.9261 30.6615 42.922 30.6615 42.917L 30.6615 42.3128Z"/>
<path id="path5_fill" d="M 27.2888 40.2049C 26.9501 40.2049 26.6802 40.481 26.6323 40.8163C 26.364 42.6978 24.8758 44.186 22.9943 44.4543C 22.659 44.5021 22.3829 44.7721 22.3829 45.1108C 22.3829 45.4495 22.6585 45.7276 22.9951 45.6904C 25.5542 45.408 27.5859 43.3761 27.8685 40.8172C 27.9056 40.4805 27.6274 40.2049 27.2888 40.2049Z"/>
<path id="path6_fill" fill-rule="evenodd" d="M 30.6615 42.3128L 30.6615 5.51907C 30.6615 2.47096 28.1905 0 25.1425 0C 22.2272 0 19.8399 2.2602 19.6373 5.12383C 19.0447 4.98478 18.4084 4.90719 17.7837 4.90584C 13.3809 4.90584 9.81169 8.475 9.81169 12.8778C 9.81169 13.1304 9.66527 13.344 9.4663 13.4264C 3.91024 15.7285 0 21.2045 0 27.5953C 0 33.9806 3.90351 39.4527 9.45192 41.7583C 9.66422 41.8465 9.81169 42.0649 9.81169 42.3128C 9.81169 48.0703 14.479 52.7377 20.2366 52.7377C 25.7883 52.7377 30.3263 48.3981 30.6439 42.9261L 30.6615 42.9261L 30.6615 42.3128ZM 25.1425 1.22646C 27.5132 1.22646 29.4351 3.14835 29.4351 5.51907L 29.4351 41.6996L 29.4351 42.3128C 29.4351 47.393 25.3167 51.5113 20.2366 51.5113C 15.1565 51.5113 11.0381 47.393 11.0381 42.3128C 11.0381 42.2118 11.0298 42.1118 11.0136 42.0136C 13.5843 41.741 15.6285 39.7033 15.9108 37.1353C 18.6625 37.0389 20.9019 34.928 21.1996 32.232C 21.2367 31.8953 20.9585 31.6197 20.6199 31.6197C 20.2812 31.6197 20.0113 31.8958 19.9634 32.2311C 19.6756 34.2491 17.9845 35.8148 15.9099 35.9079C 15.6028 33.1505 13.2641 31.0065 10.4249 31.0065L 6.43892 31.0065C 6.10027 31.0065 5.82569 31.281 5.82569 31.6197C 5.82569 31.9584 6.10027 32.2329 6.43892 32.2329L 10.4249 32.2329C 12.7956 32.2329 14.7175 34.1548 14.7175 36.5255C 14.7175 38.8963 12.7956 40.8181 10.4249 40.8181L 10.4249 40.941C 10.2791 40.8112 10.1104 40.7038 9.92248 40.6257C 4.81572 38.5036 1.22646 33.4679 1.22646 27.5953C 1.22646 21.7177 4.82185 16.6783 9.9358 14.5595C 9.94763 14.5546 9.95931 14.5496 9.97098 14.5445C 10.5633 16.9543 12.7383 18.7419 15.3308 18.7419L 19.93 18.7419C 22.0932 18.7419 23.8826 20.3419 24.1793 22.4231C 24.2272 22.7584 24.4972 23.0345 24.8358 23.0345C 25.1745 23.0345 25.4527 22.7588 25.4155 22.4222C 25.1109 19.6622 22.7711 17.5154 19.93 17.5154L 15.3308 17.5154C 12.96 17.5154 11.0381 15.5935 11.0381 13.2228L 11.0058 13.2228C 11.0272 13.1096 11.0381 12.9941 11.0381 12.8778C 11.0381 9.15234 14.0582 6.1323 17.7837 6.1323C 18.4561 6.13066 19.0631 6.22075 19.678 6.40175C 20.2733 6.57557 20.8498 6.11505 20.8498 5.51907C 20.8498 3.14835 22.7717 1.22646 25.1425 1.22646Z"/>
<path id="path7_fill" fill-rule="evenodd" d="M 23.9693 32.9438C 32.6782 29.1914 36.6963 19.0894 32.9438 10.3805C 29.1914 1.67146 19.0894 -2.34658 10.3805 1.40587C 1.67145 5.15834 -2.34658 15.2603 1.40587 23.9693C 2.70166 26.9766 4.75469 29.425 7.24606 31.1868L 5.93548 34.4819C 9.31865 35.1019 17.6616 35.6616 23.9693 32.9438Z"/>
<path id="path8_stroke" d="M 23.9693 32.9438L 24.1671 33.403L 23.9693 32.9438ZM 10.3805 1.40587L 10.5783 1.86505L 10.3805 1.40587ZM 1.40587 23.9693L 0.946685 24.1671L 1.40587 23.9693ZM 7.24606 31.1868L 7.71066 31.3716L 7.85613 31.0058L 7.53475 30.7786L 7.24606 31.1868ZM 5.93548 34.4819L 5.47088 34.2971L 5.24549 34.8638L 5.84535 34.9737L 5.93548 34.4819ZM 32.4846 10.5783C 36.1278 19.0337 32.2268 28.8415 23.7714 32.4846L 24.1671 33.403C 33.1297 29.5413 37.2647 19.1452 33.403 10.1826L 32.4846 10.5783ZM 10.5783 1.86505C 19.0337 -1.77812 28.8414 2.12292 32.4846 10.5783L 33.403 10.1826C 29.5413 1.22001 19.1452 -2.91504 10.1826 0.946676L 10.5783 1.86505ZM 1.86506 23.7714C -1.77812 15.316 2.12291 5.50826 10.5783 1.86505L 10.1826 0.946676C 1.22 4.80842 -2.91504 15.2045 0.946685 24.1671L 1.86506 23.7714ZM 7.53475 30.7786C 5.09341 29.0572 3.12731 26.7143 1.86506 23.7714L 0.946685 24.1671C 2.276 27.2389 4.41598 29.7928 6.95737 31.595L 7.53475 30.7786ZM 6.40008 34.6667L 7.71066 31.3716L 6.78146 31.002L 5.47088 34.2971L 6.40008 34.6667ZM 23.7714 32.4846C 17.5968 35.1451 9.36998 34.603 6.0256 33.9901L 5.84535 34.9737C 9.26731 35.6008 17.7265 36.1781 24.1671 33.403L 23.7714 32.4846Z"/>
<path id="path9_fill" fill-rule="evenodd" d="M 21.776 16.3626C 19.0599 22.0684 12.2327 24.492 6.52686 21.776C 0.821045 19.0599 -1.60261 12.2327 1.11345 6.52688C 3.82953 0.821038 10.6568 -1.60261 16.3626 1.11346C 18.3329 2.05136 19.9121 3.47958 21.0231 5.18256L 23.2501 4.39203C 23.5785 6.66039 23.7431 12.23 21.776 16.3626Z"/>
<path id="path10_stroke" d="M 6.52686 21.776L 6.31195 22.2274L 6.52686 21.776ZM 21.776 16.3626L 21.3245 16.1477L 21.776 16.3626ZM 1.11345 6.52688L 0.661988 6.31197L 1.11345 6.52688ZM 16.3626 1.11346L 16.5775 0.661995L 16.3626 1.11346ZM 21.0231 5.18256L 20.6044 5.45577L 20.8195 5.78543L 21.1904 5.65375L 21.0231 5.18256ZM 23.2501 4.39203L 23.7449 4.32038L 23.6575 3.71682L 23.0828 3.92083L 23.2501 4.39203ZM 6.31195 22.2274C 12.2671 25.0622 19.3927 22.5326 22.2274 16.5775L 21.3245 16.1477C 18.7271 21.6041 12.1982 23.9219 6.74176 21.3245L 6.31195 22.2274ZM 0.661988 6.31197C -2.17276 12.2671 0.356808 19.3927 6.31195 22.2274L 6.74176 21.3245C 1.28528 18.7271 -1.03246 12.1982 1.56491 6.74178L 0.661988 6.31197ZM 16.5775 0.661995C 10.6223 -2.17276 3.49675 0.356801 0.661988 6.31197L 1.56491 6.74178C 4.1623 1.28528 10.6912 -1.03246 16.1477 1.56492L 16.5775 0.661995ZM 21.4419 4.90935C 20.2923 3.15487 18.611 1.63582 16.5775 0.661995L 16.1477 1.56492C 18.0548 2.46689 19.5318 3.80428 20.6044 5.45577L 21.4419 4.90935ZM 23.0828 3.92083L 20.8559 4.71137L 21.1904 5.65375L 23.4173 4.86322L 23.0828 3.92083ZM 22.2274 16.5775C 24.2568 12.3142 24.079 6.62777 23.7449 4.32038L 22.7552 4.46368C 23.078 6.69301 23.2294 12.1459 21.3245 16.1477L 22.2274 16.5775Z"/>
<path id="path11_fill" d="M 3.63196 6.78603L 2.08906 6.78603L 2.08906 5.95313C 2.08906 5.58903 2.13002 5.3205 2.21194 5.14755C 2.30297 4.9655 2.49413 4.72883 2.78541 4.43754L 3.78215 3.4408C 3.99151 3.21324 4.09619 2.93105 4.09619 2.59426C 4.09619 2.25746 3.98696 1.97983 3.7685 1.76136C 3.55003 1.5338 3.26785 1.42001 2.92195 1.42001C 2.57605 1.42001 2.28477 1.52925 2.0481 1.74771C 1.82053 1.95707 1.68854 2.23925 1.65213 2.59426L 0 2.59426C 0.0910265 1.78412 0.405068 1.15148 0.942124 0.696353C 1.48828 0.232117 2.16643 0 2.97657 0C 3.7867 0 4.44665 0.223015 4.95639 0.669044C 5.46614 1.10597 5.72102 1.7204 5.72102 2.51233C 5.72102 3.05849 5.57082 3.51362 5.27043 3.87773C 5.09748 4.09619 4.9655 4.25094 4.87447 4.34196C 4.78344 4.43299 4.66056 4.55133 4.50581 4.69697C 4.36017 4.83351 4.23273 4.95639 4.1235 5.06563C 4.02337 5.16575 3.94145 5.25223 3.87773 5.32505C 3.71388 5.52531 3.63196 5.80749 3.63196 6.1716L 3.63196 6.78603ZM 2.88099 9.81721C 2.59881 9.81721 2.35304 9.72163 2.14367 9.53047C 1.93431 9.33022 1.82963 9.09355 1.82963 8.82047C 1.82963 8.53829 1.92976 8.29707 2.13002 8.09681C 2.33938 7.89655 2.58515 7.79642 2.86734 7.79642C 3.15862 7.79642 3.40894 7.89655 3.6183 8.09681C 3.82767 8.28796 3.93235 8.52463 3.93235 8.80681C 3.93235 9.07989 3.82767 9.31656 3.6183 9.51682C 3.41805 9.71708 3.17227 9.81721 2.88099 9.81721Z"/>
<path id="path12_fill" d="M 0.0883052 0L 3.17899 0L 3.17899 2.84784L 2.5167 10.8174L 0.750594 10.8174L 0.0883052 2.84784L 0.0883052 0ZM 1.63365 15.9832C 1.19212 15.9832 0.809464 15.8213 0.485679 15.4976C 0.161893 15.1738 0 14.7911 0 14.3496C 0 13.8934 0.161893 13.5033 0.485679 13.1796C 0.809464 12.8558 1.19212 12.6939 1.63365 12.6939C 2.08989 12.6939 2.4799 12.8558 2.80369 13.1796C 3.12748 13.5033 3.28937 13.8934 3.28937 14.3496C 3.28937 14.7911 3.12748 15.1738 2.80369 15.4976C 2.4799 15.8213 2.08989 15.9832 1.63365 15.9832Z"/>
</defs>
</svg>
