<svg width="14" height="14" viewBox="0 0 14 14" version="1.1" xmlns="http://www.w3.org/2000/svg" xmlns:xlink="http://www.w3.org/1999/xlink" xmlns:figma="http://www.figma.com/figma/ns">
<title>icon</title>
<desc>Created using Figma</desc>
<g id="Canvas" transform="translate(974 655)" figma:type="canvas">
<g id="icon" figma:type="vector">
<use xlink:href="#path0_stroke" transform="translate(-973 -654)" fill="#E0E0E0"/>
</g>
</g>
<defs>
<path id="path0_stroke" d="M 0.707107 -0.707107C 0.316582 -1.09763 -0.316582 -1.09763 -0.707107 -0.707107C -1.09763 -0.316582 -1.09763 0.316582 -0.707107 0.707107L 0.707107 -0.707107ZM 11.2929 12.7071C 11.6834 13.0976 12.3166 13.0976 12.7071 12.7071C 13.0976 12.3166 13.0976 11.6834 12.7071 11.2929L 11.2929 12.7071ZM -0.707107 11.2929C -1.09763 11.6834 -1.09763 12.3166 -0.707107 12.7071C -0.316582 13.0976 0.316582 13.0976 0.707107 12.7071L -0.707107 11.2929ZM 12.7071 0.707107C 13.0976 0.316582 13.0976 -0.316582 12.7071 -0.707107C 12.3166 -1.09763 11.6834 -1.09763 11.2929 -0.707107L 12.7071 0.707107ZM -0.707107 0.707107L 5.29289 6.70711L 6.70711 5.29289L 0.707107 -0.707107L -0.707107 0.707107ZM 5.29289 6.70711L 11.2929 12.7071L 12.7071 11.2929L 6.70711 5.29289L 5.29289 6.70711ZM 0.707107 12.7071L 6.70711 6.70711L 5.29289 5.29289L -0.707107 11.2929L 0.707107 12.7071ZM 6.70711 6.70711L 12.7071 0.707107L 11.2929 -0.707107L 5.29289 5.29289L 6.70711 6.70711Z"/>
</defs>
</svg>
