<svg width="174" height="146" viewBox="0 0 174 146" version="1.1" xmlns="http://www.w3.org/2000/svg" xmlns:xlink="http://www.w3.org/1999/xlink" xmlns:figma="http://www.figma.com/figma/ns">
<title>1st</title>
<desc>Created using Figma</desc>
<g id="Canvas" transform="matrix(2 0 0 2 3140 -1078)" figma:type="canvas">
<g id="1st" style="mix-blend-mode:normal;" figma:type="frame">
<g id="Vector" style="mix-blend-mode:normal;" figma:type="vector">
<use xlink:href="#path0_fill" transform="translate(-1568.77 548.51)" fill="#FFFFFF" style="mix-blend-mode:normal;"/>
<use xlink:href="#path1_fill" transform="translate(-1568.77 548.51)" fill="#FFFFFF" style="mix-blend-mode:normal;"/>
</g>
<g id="Vector (Stroke)" style="mix-blend-mode:normal;" figma:type="vector">
<use xlink:href="#path2_fill" transform="translate(-1569.96 547.306)" fill="#2F80ED" style="mix-blend-mode:normal;"/>
</g>
<g id="Vector" style="mix-blend-mode:normal;" figma:type="vector">
<use xlink:href="#path3_fill" transform="translate(-1547.39 540.324)" fill="#FFFFFF" style="mix-blend-mode:normal;"/>
<use xlink:href="#path4_fill" transform="translate(-1547.39 540.324)" fill="#FFFFFF" style="mix-blend-mode:normal;"/>
</g>
<g id="Vector (Stroke)" style="mix-blend-mode:normal;" figma:type="vector">
<use xlink:href="#path5_fill" transform="translate(-1548.58 539.12)" fill="#2F80ED" style="mix-blend-mode:normal;"/>
</g>
<g id="Vector" style="mix-blend-mode:normal;" figma:type="vector">
<use xlink:href="#path6_fill" transform="translate(-1513.42 582.22)" fill="#91B9EF" style="mix-blend-mode:normal;"/>
</g>
<g id="Vector (Stroke)" style="mix-blend-mode:normal;" figma:type="vector">
<use xlink:href="#path7_fill" transform="translate(-1515.8 579.812)" fill="#FFFFFF" style="mix-blend-mode:normal;"/>
</g>
</g>
</g>
<defs>
<path id="path0_fill" d="M 16.6295 18.3509C 21.5752 18.3509 25.5986 14.2347 25.5986 9.17543C 25.5986 4.11615 21.575 0 16.6295 0C 11.6838 0 7.66026 4.11615 7.66026 9.17543C 7.66026 14.2347 11.6838 18.3509 16.6295 18.3509Z"/>
<path id="path1_fill" d="M 2.16511 42.3772L 31.0939 42.3772C 32.2896 42.3772 33.259 41.3855 33.259 40.1623C 33.259 30.7819 25.7991 23.1505 16.6296 23.1505C 7.46011 23.1505 0 30.7819 0 40.1623C 0 41.3855 0.969397 42.3772 2.16511 42.3772Z"/>
<path id="path2_fill" fill-rule="evenodd" d="M 7.66026 10.3793C 7.66026 4.66573 12.2052 0 17.8173 0C 23.4292 0 27.9743 4.66572 27.9743 10.3793C 27.9743 16.0929 23.4294 20.7587 17.8173 20.7587C 12.2052 20.7587 7.66026 16.0929 7.66026 10.3793ZM 17.8173 2.4078C 13.538 2.4078 10.0359 5.97436 10.0359 10.3793C 10.0359 14.7843 13.538 18.3509 17.8173 18.3509C 22.0966 18.3509 25.5987 14.7843 25.5987 10.3793C 25.5987 5.97437 22.0964 2.4078 17.8173 2.4078ZM 0 41.3662C 0 31.3314 7.98156 23.1505 17.8174 23.1505C 27.6533 23.1505 35.6347 31.3314 35.6347 41.3662C 35.6347 43.2437 34.1439 44.785 32.2818 44.785L 3.35293 44.785C 1.49082 44.785 0 43.2437 0 41.3662ZM 17.8174 25.5583C 9.31432 25.5583 2.37565 32.6401 2.37565 41.3662C 2.37565 41.9351 2.82362 42.3772 3.35293 42.3772L 32.2818 42.3772C 32.8111 42.3772 33.259 41.9351 33.259 41.3662C 33.259 32.6401 26.3205 25.5583 17.8174 25.5583Z"/>
<path id="path3_fill" d="M 23.7564 26.2155C 30.8217 26.2155 36.5695 20.3353 36.5695 13.1078C 36.5695 5.88021 30.8215 0 23.7564 0C 16.6911 0 10.9432 5.88021 10.9432 13.1078C 10.9432 20.3353 16.6911 26.2155 23.7564 26.2155Z"/>
<path id="path4_fill" d="M 3.09301 57.7871L 44.4199 57.7871C 46.1281 57.7871 47.5129 56.3704 47.5129 54.623C 47.5129 41.2223 36.8558 30.3204 23.7566 30.3204C 10.6573 30.3204 0 41.2223 0 54.623C 0 56.3704 1.38485 57.7871 3.09301 57.7871Z"/>
<path id="path5_fill" fill-rule="evenodd" d="M 10.9432 14.3117C 10.9432 6.4298 17.2125 0 24.9442 0C 32.6757 0 38.9452 6.42979 38.9452 14.3117C 38.9452 22.1935 32.6759 28.6233 24.9442 28.6233C 17.2125 28.6233 10.9432 22.1935 10.9432 14.3117ZM 24.9442 2.4078C 18.5453 2.4078 13.3189 7.73842 13.3189 14.3117C 13.3189 20.8849 18.5453 26.2155 24.9442 26.2155C 31.3431 26.2155 36.5695 20.8849 36.5695 14.3117C 36.5695 7.73843 31.3429 2.4078 24.9442 2.4078ZM 0 55.8269C 0 41.7719 11.1788 30.3204 24.9444 30.3204C 38.71 30.3204 49.8886 41.7719 49.8886 55.8269C 49.8886 58.2286 47.9823 60.1949 45.6077 60.1949L 4.28084 60.1949C 1.90628 60.1949 0 58.2286 0 55.8269ZM 24.9444 32.7281C 12.5115 32.7281 2.37565 43.0806 2.37565 55.8269C 2.37565 56.92 3.23907 57.7871 4.28084 57.7871L 45.6077 57.7871C 46.6495 57.7871 47.5129 56.92 47.5129 55.8269C 47.5129 43.0805 37.3772 32.7281 24.9444 32.7281Z"/>
<path id="path6_fill" d="M 24.7115 7.99479L 18.7079 7.10717L 16.0232 1.5728C 15.1916 -0.141603 13.3563 0.00301198 13.5411 0.00301198C 12.4876 0.00301198 11.5254 0.611633 11.059 1.5728L 8.37412 7.10717L 2.37053 7.99479C 0.103579 8.32988 -0.802716 11.1721 0.83652 12.7978L 5.18095 17.1058L 4.15538 23.1888C 3.76811 25.4859 6.14479 27.241 8.17147 26.1573L 13.5413 23.2853L 18.9111 26.1573C 20.9211 27.2324 23.3174 25.503 22.9272 23.1888L 21.9016 17.1058L 26.2459 12.7978C 27.8858 11.1712 26.9774 8.3297 24.7115 7.99479Z"/>
<path id="path7_fill" fill-rule="evenodd" d="M 18.0582 3.4341C 18.1834 3.5911 18.2993 3.77194 18.4003 3.98022L 21.085 9.51459L 27.0886 10.4022C 29.3546 10.7371 30.2629 13.5786 28.623 15.2052L 24.2787 19.5132L 25.3043 25.5962C 25.6945 27.9104 23.2983 29.6398 21.2882 28.5647L 15.9184 25.6927L 10.5486 28.5647C 8.5219 29.6484 6.14522 27.8933 6.53249 25.5962L 7.55806 19.5132L 3.21363 15.2052C 1.57439 13.5795 2.48069 10.7373 4.74764 10.4022L 10.7512 9.51459L 13.4361 3.98022C 13.5276 3.79163 13.6382 3.61662 13.7648 3.45712C 14.2836 2.80366 15.0714 2.41043 15.9182 2.41043C 15.9005 2.41043 15.9014 2.4091 15.9182 2.4082L 15.9182 0.00270038C 15.9266 0.00293001 15.9708 0.00369535 15.9857 0.00387331C 15.9951 0.00543315 16.1935 0.0204984 16.1827 0.0185744C 16.2255 0.0235791 16.3478 0.0389706 16.4978 0.0780942C 16.5657 0.0957948 16.7611 0.148534 16.9903 0.267741C 16.9919 0.268572 16.9941 0.269715 16.997 0.271176C 17.0983 0.322403 17.9722 0.764633 18.2217 1.87537C 18.365 2.51366 18.2496 3.036 18.0582 3.4341ZM 15.7803 0.00450363C 15.7817 0.00441017 15.7829 0.00432384 15.7841 0.00424461C 15.8127 0.00273827 15.8653 0.000793806 15.8961 0.000140752C 15.9716 -0.000834696 16.1494 0.00317272 16.3054 0.0148946C 16.5404 0.0356792 17.051 0.119216 17.5138 0.262996C 18.4936 0.586406 19.7634 1.33294 20.5322 2.91785C 20.5322 2.91788 20.5322 2.9179 20.5323 2.91793L 22.6652 7.31494L 27.4315 8.01962C 27.4315 8.01962 27.4315 8.01963 27.4316 8.01963C 31.655 8.64396 33.3212 13.9142 30.2846 16.9261L 30.2844 16.9263L 26.8302 20.3516L 27.646 25.1906C 27.646 25.1906 27.646 25.1906 27.646 25.1907C 28.3697 29.4827 23.9233 32.6966 20.1795 30.6942C 20.1795 30.6942 20.1795 30.6942 20.1795 30.6942L 15.9184 28.4152L 11.6573 30.6942L 11.6571 30.6943C 7.87123 32.7187 3.47494 29.4367 4.19079 25.1907L 6.52843 25.5955L 4.19079 25.1907L 5.00661 20.3517L 1.55226 16.9263L 1.55215 16.9262C -1.48246 13.9167 0.178159 8.64444 4.40472 8.01963C 4.40475 8.01963 4.40478 8.01963 4.4048 8.01962L 9.17107 7.31494L 11.3043 2.91779L 11.3043 2.91774C 12.1483 1.17817 13.8722 0.0562058 15.7803 0.00450363Z"/>
</defs>
</svg>
