<svg width="50" height="50" viewBox="0 0 50 50" version="1.1" xmlns="http://www.w3.org/2000/svg" xmlns:xlink="http://www.w3.org/1999/xlink" xmlns:figma="http://www.figma.com/figma/ns">
<title>logo</title>
<desc>Created using Figma</desc>
<g id="Canvas" transform="translate(1832 -7669)" figma:type="canvas">
<g id="logo" style="mix-blend-mode:normal;" figma:type="vector">
<use xlink:href="#path0_fill" transform="translate(-1832 7669)" fill="#000000" fill-opacity="0.2" style="mix-blend-mode:normal;"/>
<use xlink:href="#path1_fill" transform="translate(-1832 7669)" fill="#000000" fill-opacity="0.2" style="mix-blend-mode:normal;"/>
</g>
</g>
<defs>
<path id="path0_fill" d="M 21.875 25L 21.875 28.125C 21.875 29.8509 23.2741 31.25 25 31.25C 26.7259 31.25 28.125 29.8509 28.125 28.125C 28.125 26.3991 26.7259 25 25 25L 21.875 25Z"/>
<path id="path1_fill" fill-rule="evenodd" d="M 50 25C 50 38.8072 38.8072 50 25.0001 50C 14.9999 50 4.16663 44.4448 0 41.6667L 3.65089 38.0157C 1.33463 34.2245 0 29.7678 0 25C 0 11.1928 11.1928 0 25.0001 0C 38.8072 0 50 11.1928 50 25ZM 18.9484 12.5062C 20.5818 12.6085 21.875 13.9657 21.875 15.625L 21.875 17.1113L 21.8564 17.0833L 21.8564 21.6667L 22.5834 18.75L 25 18.75C 30.1777 18.75 34.375 22.9473 34.375 28.125C 34.375 33.3027 30.1777 37.5 25 37.5C 19.8223 37.5 15.625 33.3027 15.625 28.125L 15.625 21.875L 15.625 15.8333L 15.625 15.625L 15.625 13.3333C 15.625 12.8731 15.997 12.5 16.4559 12.5L 18.75 12.5L 18.9484 12.5L 18.9484 12.5062Z"/>
</defs>
</svg>
