<svg width="34" height="29" viewBox="0 0 34 29" version="1.1" xmlns="http://www.w3.org/2000/svg" xmlns:xlink="http://www.w3.org/1999/xlink" xmlns:figma="http://www.figma.com/figma/ns">
<title>github</title>
<desc>Created using Figma</desc>
<g id="Canvas" transform="translate(1137 -6875)" figma:type="canvas">
<g id="github" style="mix-blend-mode:normal;" figma:type="vector">
<use xlink:href="#path0_fill" transform="translate(-1137 6875.79)" fill="#FFFFFF" style="mix-blend-mode:normal;"/>
<use xlink:href="#path1_fill" transform="translate(-1137 6875.79)" fill="#FFFFFF" style="mix-blend-mode:normal;"/>
<use xlink:href="#path2_fill" transform="translate(-1137 6875.79)" fill="#FFFFFF" style="mix-blend-mode:normal;"/>
</g>
</g>
<defs>
<path id="path0_fill" d="M 30.3852 7.67627C 30.7432 6.6021 30.9225 5.48857 30.9225 4.33527C 30.9225 2.79736 30.584 1.35222 29.908 0C 28.4898 0 27.237 0.258757 26.1496 0.775644C 25.0627 1.29267 23.8232 2.09471 22.4316 3.18177C 20.6818 2.75759 18.8252 2.5455 16.8636 2.5455C 14.7157 2.5455 12.6674 2.77765 10.7187 3.2416C 9.30027 2.12787 8.04744 1.30946 6.96032 0.785674C 5.87319 0.261891 4.61381 6.96137e-05 3.18191 6.96137e-05C 2.5058 1.35229 2.16778 2.7975 2.16778 4.33534C 2.16778 5.50208 2.34664 6.62898 2.70465 7.7159C 0.901435 9.82398 0 12.4488 0 15.5909C 0 18.3488 0.410807 20.5426 1.23291 22.1735C 1.67053 23.0349 2.24042 23.7972 2.94314 24.4603C 3.64558 25.123 4.44769 25.6603 5.34927 26.0713C 6.25098 26.482 7.15889 26.8236 8.07377 27.0952C 8.98858 27.3668 9.99937 27.5659 11.1064 27.6913C 12.2134 27.8178 13.1911 27.9005 14.0395 27.9406C 14.888 27.9799 15.8291 28 16.8635 28C 18.083 28 19.1896 27.9699 20.1844 27.9106C 21.1788 27.8511 22.3153 27.705 23.5948 27.4735C 24.8741 27.2414 26.0011 26.9262 26.9757 26.5287C 27.9501 26.1311 28.885 25.5609 29.7798 24.8186C 30.6746 24.076 31.3737 23.1945 31.8778 22.1735C 32.686 20.5296 33.0906 18.3352 33.0906 15.591C 33.0901 12.4356 32.1886 9.79745 30.3852 7.67627ZM 27.9997 22.1432C 27.5754 23.0118 27.0384 23.694 26.3889 24.1916C 25.7391 24.6889 24.9305 25.0865 23.9628 25.3851C 22.9947 25.6833 22.0671 25.8788 21.1788 25.9713C 20.2902 26.0642 19.3028 26.1104 18.2154 26.1104L 14.8745 26.1104C 13.7875 26.1104 12.7996 26.0642 11.9115 25.9713C 11.0233 25.8788 10.0953 25.6833 9.1274 25.3851C 8.15986 25.0865 7.35127 24.6889 6.70149 24.1916C 6.05171 23.6939 5.51483 23.0118 5.09058 22.1432C 4.6664 21.2745 4.45424 20.2573 4.45424 19.0908C 4.45424 17.4994 4.91164 16.147 5.82652 15.0339C 6.74133 13.9201 7.98079 13.3635 9.54503 13.3635C 10.1153 13.3635 11.4079 13.5026 13.423 13.781C 14.3642 13.9268 15.4051 13.9998 16.545 13.9998C 17.6854 13.9998 18.7261 13.927 19.6671 13.781C 21.7091 13.5025 23.0013 13.3635 23.5452 13.3635C 25.1094 13.3635 26.3488 13.9204 27.2636 15.0339C 28.1785 16.1475 28.6356 17.4994 28.6356 19.0908C 28.6356 20.2575 28.4235 21.2753 27.9997 22.1432Z"/>
<path id="path1_fill" d="M 11.6232 15.9486C 11.2188 15.4976 10.7384 15.2721 10.1814 15.2721C 9.62436 15.2721 9.1439 15.4979 8.73958 15.9486C 8.33545 16.3991 8.05023 16.903 7.8846 17.4593C 7.71862 18.0166 7.63587 18.5601 7.63587 19.0907C 7.63587 19.6207 7.71883 20.1642 7.8846 20.7215C 8.05002 21.2781 8.33511 21.7817 8.73958 22.2322C 9.14411 22.6832 9.62436 22.9087 10.1814 22.9087C 10.7384 22.9087 11.219 22.6828 11.6232 22.2322C 12.0274 21.7817 12.3125 21.2781 12.4781 20.7215C 12.6439 20.1642 12.7269 19.6207 12.7269 19.0907C 12.7269 18.5606 12.6441 18.0166 12.4781 17.4593C 12.3124 16.9033 12.0276 16.3995 11.6232 15.9486Z"/>
<path id="path2_fill" d="M 24.3504 15.9486C 23.9461 15.4976 23.4656 15.2721 22.9088 15.2721C 22.3522 15.2721 21.8714 15.4979 21.4669 15.9486C 21.0627 16.3991 20.7777 16.903 20.6122 17.4593C 20.4461 18.0166 20.3632 18.5601 20.3632 19.0907C 20.3632 19.6207 20.4461 20.1642 20.6122 20.7215C 20.7777 21.2781 21.0627 21.7817 21.4669 22.2322C 21.8715 22.6832 22.3522 22.9087 22.9088 22.9087C 23.4656 22.9087 23.9462 22.6828 24.3504 22.2322C 24.7544 21.7817 25.0397 21.2781 25.2056 20.7215C 25.3713 20.1642 25.4542 19.6207 25.4542 19.0907C 25.4542 18.5606 25.3713 18.0166 25.2056 17.4593C 25.0397 16.9033 24.7544 16.3995 24.3504 15.9486Z"/>
</defs>
</svg>
