<svg width="156" height="120" viewBox="0 0 156 120" version="1.1" xmlns="http://www.w3.org/2000/svg" xmlns:xlink="http://www.w3.org/1999/xlink" xmlns:figma="http://www.figma.com/figma/ns">
<title>mastercard</title>
<desc>Created using Figma</desc>
<g id="Canvas" transform="matrix(2 0 0 2 1524 -7216)" figma:type="canvas">
<g id="mastercard" style="mix-blend-mode:normal;" figma:type="frame">
<g id="XMLID 4" style="mix-blend-mode:normal;" figma:type="vector">
<use xlink:href="#path0_fill" transform="translate(-758.013 3658.96)" fill="#BDBDBD" style="mix-blend-mode:normal;"/>
</g>
<g id="Vector" style="mix-blend-mode:normal;" figma:type="vector">
<use xlink:href="#path1_fill" transform="translate(-733.761 3613.12)" fill="#BDBDBD" style="mix-blend-mode:normal;"/>
</g>
<g id="XMLID 3" style="mix-blend-mode:normal;" figma:type="vector">
<use xlink:href="#path2_fill" transform="translate(-762 3608)" fill="#828282" style="mix-blend-mode:normal;"/>
</g>
<g id="Vector" style="mix-blend-mode:normal;" figma:type="vector">
<use xlink:href="#path3_fill" transform="translate(-723.329 3608)" fill="#E0E0E0" style="mix-blend-mode:normal;"/>
</g>
</g>
</g>
<defs>
<path id="path0_fill" d="M 10.0997 8.90365L 10.0997 4.91694C 10.0997 3.3887 9.16944 2.39203 7.57475 2.39203C 6.77741 2.39203 5.91362 2.65781 5.31562 3.5216C 4.8505 2.7907 4.18605 2.39203 3.18937 2.39203C 2.52492 2.39203 1.86047 2.59136 1.3289 3.32226L 1.3289 2.52492L 0 2.52492L 0 8.90365L 1.39535 8.90365L 1.39535 5.38206C 1.39535 4.25249 1.99336 3.72093 2.92359 3.72093C 3.85382 3.72093 4.31894 4.31894 4.31894 5.38206L 4.31894 8.90365L 5.71429 8.90365L 5.71429 5.38206C 5.71429 4.25249 6.37874 3.72093 7.24253 3.72093C 8.17276 3.72093 8.63787 4.31894 8.63787 5.38206L 8.63787 8.90365L 10.0997 8.90365ZM 30.7641 2.52492L 28.505 2.52492L 28.505 0.598006L 27.1096 0.598006L 27.1096 2.52492L 25.8472 2.52492L 25.8472 3.78738L 27.1096 3.78738L 27.1096 6.71097C 27.1096 8.17276 27.7076 9.03655 29.3023 9.03655C 29.9003 9.03655 30.5648 8.83721 31.0299 8.57143L 30.6312 7.37542C 30.2326 7.6412 29.7674 7.70764 29.4352 7.70764C 28.7708 7.70764 28.505 7.30897 28.505 6.64452L 28.505 3.78738L 30.7641 3.78738L 30.7641 2.52492ZM 42.5249 2.39203C 41.7276 2.39203 41.196 2.7907 40.8638 3.32226L 40.8638 2.52492L 39.4684 2.52492L 39.4684 8.90365L 40.8638 8.90365L 40.8638 5.31561C 40.8638 4.25249 41.3289 3.65448 42.1927 3.65448C 42.4585 3.65448 42.7907 3.72093 43.0565 3.78738L 43.4552 2.45847C 43.1894 2.45847 42.7907 2.39203 42.5249 2.39203ZM 24.7176 3.05648C 24.0532 2.59136 23.1229 2.39203 22.1262 2.39203C 20.5316 2.39203 19.4684 3.18937 19.4684 4.45183C 19.4684 5.51495 20.2658 6.11296 21.6611 6.31229L 22.3256 6.37874C 23.0565 6.51163 23.4552 6.71097 23.4552 7.04319C 23.4552 7.50831 22.9236 7.84053 21.9934 7.84053C 21.0631 7.84053 20.3322 7.50831 19.8671 7.17608L 19.2027 8.2392C 19.9336 8.77076 20.9302 9.03655 21.9269 9.03655C 23.7874 9.03655 24.8505 8.17276 24.8505 6.97674C 24.8505 5.84717 23.9867 5.24917 22.6578 5.04984L 21.9934 4.98339C 21.3953 4.91694 20.9302 4.78406 20.9302 4.38538C 20.9302 3.92027 21.3953 3.65448 22.1262 3.65448C 22.9236 3.65448 23.7209 3.98671 24.1196 4.18605L 24.7176 3.05648ZM 61.7276 2.39203C 60.9302 2.39203 60.3987 2.7907 60.0665 3.32226L 60.0665 2.52492L 58.6711 2.52492L 58.6711 8.90365L 60.0665 8.90365L 60.0665 5.31561C 60.0665 4.25249 60.5316 3.65448 61.3954 3.65448C 61.6611 3.65448 61.9934 3.72093 62.2591 3.78738L 62.6578 2.45847C 62.392 2.45847 61.9934 2.39203 61.7276 2.39203ZM 43.9203 5.71429C 43.9203 7.6412 45.2492 9.03655 47.309 9.03655C 48.2392 9.03655 48.9037 8.83721 49.5681 8.30565L 48.9037 7.17608C 48.3721 7.57475 47.8405 7.77409 47.2425 7.77409C 46.113 7.77409 45.3156 6.97675 45.3156 5.71429C 45.3156 4.51827 46.113 3.72093 47.2425 3.65448C 47.8405 3.65448 48.3721 3.85382 48.9037 4.25249L 49.5681 3.12293C 48.9037 2.59136 48.2392 2.39203 47.309 2.39203C 45.2492 2.39203 43.9203 3.78738 43.9203 5.71429ZM 56.8771 5.71429L 56.8771 2.52492L 55.4817 2.52492L 55.4817 3.32226C 55.0166 2.72425 54.3522 2.39203 53.4884 2.39203C 51.6944 2.39203 50.299 3.78738 50.299 5.71429C 50.299 7.6412 51.6944 9.03655 53.4884 9.03655C 54.4186 9.03655 55.0831 8.70432 55.4817 8.10631L 55.4817 8.90365L 56.8771 8.90365L 56.8771 5.71429ZM 51.6944 5.71429C 51.6944 4.58472 52.4253 3.65448 53.6213 3.65448C 54.7508 3.65448 55.5482 4.51827 55.5482 5.71429C 55.5482 6.84386 54.7508 7.77409 53.6213 7.77409C 52.4253 7.77409 51.6944 6.84386 51.6944 5.71429ZM 35.0166 2.39203C 33.1562 2.39203 31.8272 3.72093 31.8272 5.71429C 31.8272 7.70764 33.1561 9.03655 35.0831 9.03655C 36.0133 9.03655 36.9435 8.77077 37.6744 8.17276L 37.01 7.17608C 36.4784 7.57475 35.814 7.84053 35.1495 7.84053C 34.2857 7.84053 33.4219 7.44186 33.2226 6.31229L 37.9402 6.31229C 37.9402 6.11296 37.9402 5.98007 37.9402 5.78073C 38.0731 3.72093 36.8106 2.39203 35.0166 2.39203ZM 35.0166 3.65448C 35.8804 3.65448 36.4784 4.18605 36.6113 5.18272L 33.289 5.18272C 33.4884 4.25249 34.0199 3.65448 35.0166 3.65448ZM 69.701 5.71429L 69.701 -2.02775e-06L 68.3057 -2.02775e-06L 68.3057 3.32226C 67.8405 2.72425 67.1761 2.39203 66.3123 2.39203C 64.5183 2.39203 63.1229 3.78738 63.1229 5.71429C 63.1229 7.6412 64.5183 9.03655 66.3123 9.03655C 67.2425 9.03655 67.907 8.70432 68.3057 8.10631L 68.3057 8.90365L 69.701 8.90365L 69.701 5.71429ZM 64.5183 5.71429C 64.5183 4.58472 65.2492 3.65448 66.4452 3.65448C 67.5748 3.65448 68.3721 4.51827 68.3721 5.71429C 68.3721 6.84386 67.5748 7.77409 66.4452 7.77409C 65.2492 7.77409 64.5183 6.84386 64.5183 5.71429ZM 17.8738 5.71429L 17.8738 2.52492L 16.4784 2.52492L 16.4784 3.32226C 16.0133 2.72425 15.3488 2.39203 14.4851 2.39203C 12.691 2.39203 11.2957 3.78738 11.2957 5.71429C 11.2957 7.6412 12.691 9.03655 14.4851 9.03655C 15.4153 9.03655 16.0797 8.70432 16.4784 8.10631L 16.4784 8.90365L 17.8738 8.90365L 17.8738 5.71429ZM 12.7575 5.71429C 12.7575 4.58472 13.4884 3.65448 14.6844 3.65448C 15.814 3.65448 16.6113 4.51827 16.6113 5.71429C 16.6113 6.84386 15.814 7.77409 14.6844 7.77409C 13.4884 7.77409 12.7575 6.84386 12.7575 5.71429Z"/>
<path id="path1_fill" d="M 20.9302 0L 0 0L 0 37.608L 20.9302 37.608L 20.9302 0Z"/>
<path id="path2_fill" d="M 29.5681 23.9203C 29.5681 16.2791 33.1562 9.50166 38.6711 5.11628C 34.6179 1.92691 29.5017 0 23.9203 0C 10.6977 0 0 10.6977 0 23.9203C 0 37.1429 10.6977 47.8405 23.9203 47.8405C 29.5017 47.8405 34.6179 45.9136 38.6711 42.7243C 33.1562 38.3389 29.5681 31.5615 29.5681 23.9203Z"/>
<path id="path3_fill" d="M 38.7375 23.9203C 38.7375 37.1429 28.0399 47.8405 14.8173 47.8405C 9.23588 47.8405 4.1196 45.9136 0.0664442 42.7243C 5.58139 38.3389 9.16943 31.5615 9.16943 23.9203C 9.16943 16.2791 5.5814 9.50166 0 5.11628C 4.1196 1.92691 9.23588 0 14.8173 0C 28.0399 0 38.7375 10.6977 38.7375 23.9203Z"/>
</defs>
</svg>
