<svg width="298" height="80" viewBox="0 0 298 80" version="1.1" xmlns="http://www.w3.org/2000/svg" xmlns:xlink="http://www.w3.org/1999/xlink" xmlns:figma="http://www.figma.com/figma/ns">
<title>netflix</title>
<desc>Created using Figma</desc>
<g id="Canvas" transform="matrix(2 0 0 2 3154 -7236)" figma:type="canvas">
<g id="netflix" style="mix-blend-mode:normal;" figma:type="vector">
<use xlink:href="#path0_fill" transform="translate(-1577 3618)" fill="#BDBDBD" style="mix-blend-mode:normal;"/>
<use xlink:href="#path1_fill" transform="translate(-1577 3618)" fill="#BDBDBD" style="mix-blend-mode:normal;"/>
<use xlink:href="#path2_fill" transform="translate(-1577 3618)" fill="#BDBDBD" style="mix-blend-mode:normal;"/>
<use xlink:href="#path3_fill" transform="translate(-1577 3618)" fill="#BDBDBD" style="mix-blend-mode:normal;"/>
<use xlink:href="#path4_fill" transform="translate(-1577 3618)" fill="#BDBDBD" style="mix-blend-mode:normal;"/>
<use xlink:href="#path5_fill" transform="translate(-1577 3618)" fill="#BDBDBD" style="mix-blend-mode:normal;"/>
<use xlink:href="#path6_fill" transform="translate(-1577 3618)" fill="#BDBDBD" style="mix-blend-mode:normal;"/>
</g>
</g>
<defs>
<path id="path0_fill" d="M 20.3962 0C 18.3635 0 16.1929 0 14.1258 0C 14.1258 8.50991 14.0913 14.0224 14.0913 22.5668C 11.404 14.2291 8.71663 8.75108 6.02929 0C 3.72093 0 2.30836 0 0 0C 0 13.2989 0 26.6322 0 39.9311C 2.03273 39.6555 4.20327 39.3799 6.23601 39.1042C 6.23601 30.7666 6.23601 25.6331 6.27046 17.261C 9.06116 25.4953 10.7838 30.3187 13.5745 38.1395C 15.7451 37.8984 18.1568 37.5883 20.3618 37.3471C 20.3618 24.9096 20.3962 12.472 20.3962 0Z"/>
<path id="path1_fill" d="M 43.8243 0C 38.0017 0 32.2825 0 26.46 0C 26.4255 12.2997 26.4255 24.565 26.3911 36.8648C 32.2136 36.348 38.0017 35.9001 43.8243 35.5556C 43.8243 33.764 43.8243 31.18 43.8243 29.3885C 40.0345 29.6296 36.4169 29.8708 32.6615 30.112C 32.6615 26.8045 32.6615 24.0827 32.696 20.7752C 35.4522 20.7407 38.3463 20.7752 41.1714 20.7063C 41.1714 18.9147 41.1714 16.2963 41.1714 14.5047C 38.3807 14.5392 35.4522 14.5736 32.696 14.6081C 32.696 11.3006 32.696 9.50905 32.7304 6.20155C 34.4531 6.1671 36.1413 6.1671 37.8295 6.1671C 38.1395 6.1671 38.4152 6.1671 38.7253 6.1671C 39.0353 6.1671 39.311 6.1671 39.621 6.1671C 41.0336 6.1671 42.4462 6.1671 43.8932 6.1671C 43.8588 4.37554 43.8243 1.79156 43.8243 0Z"/>
<path id="path2_fill" d="M 67.2179 0.0344543C 60.8441 0.0344543 54.2636 0.0344543 47.8898 0.0344543C 47.8898 1.82601 47.8898 4.37554 47.8898 6.1671C 48.1654 6.1671 48.441 6.1671 48.7166 6.1671C 49.5435 6.1671 50.4048 6.1671 51.2317 6.1671C 52.0586 6.1671 52.9199 6.1671 53.7468 6.1671C 53.9535 6.1671 54.1602 6.1671 54.4014 6.1671C 54.4014 16.0551 54.3669 25.1163 54.3669 35.0043C 56.3997 34.9354 58.6047 34.8665 60.6374 34.7976C 60.6374 24.944 60.6718 15.9518 60.6718 6.09819C 62.8424 6.09819 65.0474 6.09819 67.2179 6.06374C 67.2179 4.40999 67.2179 1.79156 67.2179 0.0344543Z"/>
<path id="path3_fill" d="M 88.7166 0C 82.8941 0 77.106 0 71.2834 0C 71.2834 11.5762 71.2834 23.118 71.2834 34.6942C 71.9725 34.6942 72.6271 34.6942 73.3161 34.6942C 74.6942 34.6942 76.1068 34.6942 77.4849 34.6942C 77.4849 29.8019 77.4849 25.323 77.4849 20.3962C 77.8295 20.3962 78.174 20.3962 78.5185 20.3962C 79.3454 20.3962 80.1378 20.3962 80.9647 20.3962C 81.7916 20.3962 82.6184 20.3962 83.4453 20.3962C 84.3066 20.3962 85.1335 20.3962 85.9604 20.3962C 85.9604 18.6391 85.9604 16.0207 85.9604 14.2636C 85.168 14.2636 84.3755 14.2636 83.5831 14.2636C 82.7218 14.2636 81.8605 14.2636 80.9992 14.2636C 80.1378 14.2636 79.2765 14.2636 78.4496 14.2636C 78.1395 14.2636 77.795 14.2636 77.4849 14.2636C 77.4849 11.0939 77.4849 9.33678 77.4849 6.1671C 78.174 6.1671 78.8631 6.1671 79.5177 6.1671C 80.2067 6.1671 80.8958 6.1671 81.5849 6.1671C 82.2739 6.1671 82.963 6.1671 83.652 6.1671C 85.3402 6.1671 87.0284 6.1671 88.7166 6.1671C 88.7166 4.44445 88.7166 1.75711 88.7166 0Z"/>
<path id="path4_fill" d="M 92.7821 0.0344543C 92.7821 11.714 92.7477 23.3936 92.7477 35.0388C 98.3291 35.2455 104.186 35.4867 109.733 35.8656C 109.733 34.0741 109.733 31.4901 109.733 29.6985C 106.219 29.4918 102.532 29.2507 99.0181 29.1128C 99.0181 19.1215 99.0526 10.0603 99.0526 0.0344543C 96.9854 0.0344543 94.8148 0.0344543 92.7821 0.0344543Z"/>
<path id="path5_fill" d="M 114.867 0.0344543C 114.901 12.093 114.901 24.1861 114.935 36.2446C 116.968 36.4169 119.104 36.5547 121.137 36.7614C 121.137 24.5306 121.171 12.2653 121.137 0.0344543C 119.104 0.0344543 116.934 0.0344543 114.867 0.0344543Z"/>
<path id="path6_fill" d="M 126.512 0.0344543C 129.027 6.13265 131.301 12.2653 133.85 18.7425C 131.197 24.9785 128.51 31.1456 125.857 37.1404C 128.062 37.3471 130.301 37.6572 132.507 37.9328C 134.091 34.0741 135.504 31.1111 137.089 27.1835C 138.639 31.3867 140.086 34.6598 141.637 39.0009C 143.807 39.2765 146.632 39.6899 148.837 40C 146.184 32.9371 143.29 25.5642 140.637 18.9147C 143.29 12.6443 145.978 6.64944 148.734 0.10336C 146.46 0.10336 144.152 0.10336 141.878 0.10336C 140.19 4.16882 139.018 6.7528 137.399 10.6115C 135.883 6.61499 134.884 3.99656 133.333 0.10336C 131.094 0.0344544 128.786 0.0344543 126.512 0.0344543Z"/>
</defs>
</svg>
