<svg width="452" height="100" viewBox="0 0 452 100" version="1.1" xmlns="http://www.w3.org/2000/svg" xmlns:xlink="http://www.w3.org/1999/xlink" xmlns:figma="http://www.figma.com/figma/ns">
<title>open table</title>
<desc>Created using Figma</desc>
<g id="Canvas" transform="matrix(2 0 0 2 2636 -7226)" figma:type="canvas">
<g id="open table" style="mix-blend-mode:normal;" figma:type="vector">
<use xlink:href="#path0_fill" transform="translate(-1318 3613)" fill="#BDBDBD" style="mix-blend-mode:normal;"/>
<use xlink:href="#path1_fill" transform="translate(-1318 3613)" fill="#BDBDBD" style="mix-blend-mode:normal;"/>
<use xlink:href="#path2_fill" transform="translate(-1318 3613)" fill="#BDBDBD" style="mix-blend-mode:normal;"/>
<use xlink:href="#path3_fill" transform="translate(-1318 3613)" fill="#BDBDBD" style="mix-blend-mode:normal;"/>
<use xlink:href="#path4_fill" transform="translate(-1318 3613)" fill="#BDBDBD" style="mix-blend-mode:normal;"/>
<use xlink:href="#path5_fill" transform="translate(-1318 3613)" fill="#BDBDBD" style="mix-blend-mode:normal;"/>
<use xlink:href="#path6_fill" transform="translate(-1318 3613)" fill="#BDBDBD" style="mix-blend-mode:normal;"/>
<use xlink:href="#path7_fill" transform="translate(-1318 3613)" fill="#BDBDBD" style="mix-blend-mode:normal;"/>
<use xlink:href="#path8_fill" transform="translate(-1318 3613)" fill="#BDBDBD" style="mix-blend-mode:normal;"/>
<use xlink:href="#path9_fill" transform="translate(-1318 3613)" fill="#BDBDBD" style="mix-blend-mode:normal;"/>
<use xlink:href="#path10_fill" transform="translate(-1318 3613)" fill="#BDBDBD" style="mix-blend-mode:normal;"/>
<use xlink:href="#path11_fill" transform="translate(-1318 3613)" fill="#BDBDBD" style="mix-blend-mode:normal;"/>
<use xlink:href="#path12_fill" transform="translate(-1318 3613)" fill="#BDBDBD" style="mix-blend-mode:normal;"/>
</g>
</g>
<defs>
<path id="path0_fill" fill-rule="evenodd" d="M 18.8948 25C 18.8948 11.2105 30.0526 0 43.8948 0C 57.6842 0 68.8422 11.2105 68.8948 25C 68.8948 38.7895 57.6842 50 43.8948 50C 30.0526 50 18.8948 38.7895 18.8948 25ZM 37.6316 25C 37.6316 28.4737 40.421 31.2632 43.8948 31.2632C 47.3158 31.2632 50.1052 28.4737 50.158 25C 50.158 21.5263 47.3684 18.7368 43.8948 18.7368C 40.421 18.7368 37.6316 21.5263 37.6316 25Z"/>
<path id="path1_fill" d="M 6.26318 18.7368C 2.78943 18.7368 0 21.5263 0 25C 0 28.4737 2.78943 31.2632 6.26318 31.2632C 9.73682 31.2632 12.5264 28.4737 12.5264 25C 12.5264 21.5263 9.73682 18.7368 6.26318 18.7368Z"/>
<path id="path2_fill" fill-rule="evenodd" d="M 134.842 26.7895C 134.842 22.9474 132 20.2105 128.316 20.2105C 124.105 20.2105 121.158 23.6316 121.158 27.6316C 121.158 31.7368 124.105 35.1053 128.368 35.1053C 130.684 35.1053 132.474 34.2105 133.684 33.1579C 134 32.8421 134 32.4737 133.737 32.2105L 132.526 30.6316C 132.263 30.3158 131.895 30.3684 131.579 30.6316C 130.947 31.1579 129.947 31.6842 128.526 31.6842C 126.474 31.6842 125.053 30.1053 125 28.3684L 134.105 28.3684C 134.421 28.3684 134.737 28.1053 134.789 27.7368C 134.789 27.5979 134.804 27.4004 134.818 27.2138C 134.83 27.0469 134.842 26.8889 134.842 26.7895ZM 128.263 23.3684C 129.842 23.3684 130.947 24.4737 131 25.8421L 125.263 25.8421C 125.421 24.4211 126.526 23.3684 128.263 23.3684Z"/>
<path id="path3_fill" d="M 151 14.7368L 165.526 14.7368C 165.842 14.7368 166.105 15 166 15.3158L 166 17.8421C 166 18.1579 165.737 18.4211 165.421 18.4211L 160.211 18.4211L 160.211 34.2105C 160.211 34.5263 159.947 34.7895 159.632 34.7895L 156.789 34.7895C 156.474 34.7895 156.211 34.5263 156.211 34.2105L 156.211 18.4211L 151 18.4211C 150.684 18.4211 150.421 18.1579 150.421 17.8421L 150.421 15.3158C 150.421 15 150.684 14.7368 151 14.7368Z"/>
<path id="path4_fill" fill-rule="evenodd" d="M 183.842 20.8421C 184.474 20.5263 185.895 20.2105 187.316 20.2105C 191.526 20.2105 194.211 23.4737 194.211 27.6316C 194.211 31.7368 191.421 35.1053 187.526 35.1053C 184.421 35.1053 182.789 33 182.789 33L 182.789 33.0526L 182.789 34.1053C 182.789 34.4737 182.474 34.7895 182.105 34.7895L 181.842 34.7895L 181.789 34.7895L 180.684 34.7895C 180.316 34.7895 180 34.4737 180 34.1053L 180 15.4211C 180 15.0526 180.368 14.7368 180.684 14.7368L 183.158 14.7368C 183.526 14.7368 183.842 15.1053 183.842 15.4211L 183.842 20.8421ZM 183.842 29.5789C 184.158 30.4211 185.158 31.5789 187 31.5789C 189.211 31.5789 190.316 29.5789 190.316 27.5789C 190.316 25.5789 189.158 23.6842 186.789 23.6842C 185 23.6842 183.842 24.4737 183.842 24.4737L 183.842 29.5789Z"/>
<path id="path5_fill" fill-rule="evenodd" d="M 217.632 26.7895C 217.632 22.9474 214.789 20.2105 211.105 20.2105C 206.895 20.2105 203.947 23.6316 203.947 27.6316C 203.947 31.7368 206.895 35.1053 211.158 35.1053C 213.474 35.1053 215.263 34.2105 216.474 33.1579C 216.789 32.8421 216.789 32.4737 216.526 32.2105L 215.316 30.6316C 215.053 30.3158 214.684 30.3684 214.368 30.6316C 213.737 31.1579 212.737 31.6842 211.316 31.6842C 209.263 31.6842 207.842 30.1053 207.789 28.3684L 216.895 28.3684C 217.211 28.3684 217.526 28.1053 217.579 27.7368C 217.579 27.5979 217.594 27.4004 217.607 27.2138C 217.62 27.0469 217.632 26.8889 217.632 26.7895ZM 211 23.3684C 212.579 23.3684 213.684 24.4737 213.737 25.8421L 208 25.8421C 208.158 24.4211 209.263 23.3684 211 23.3684Z"/>
<path id="path6_fill" fill-rule="evenodd" d="M 107.421 22.3158C 107.474 22.2105 109.105 20.2105 112.053 20.2105C 115.947 20.2105 118.895 23.3684 118.842 27.6842C 118.842 31.8421 116.053 35.1053 111.789 35.1053C 110.368 35.1053 109 34.7895 108.368 34.5263L 108.368 39.8421C 108.368 40.2105 108 40.5263 107.684 40.5263L 105.211 40.5263C 104.842 40.5263 104.526 40.1579 104.526 39.8421L 104.526 21.1579C 104.526 20.7895 104.842 20.4737 105.211 20.4737L 106.737 20.4737C 107.105 20.4737 107.421 20.7895 107.421 21.1579L 107.421 22.3158ZM 108.421 30.7895C 108.421 30.7895 109.579 31.5789 111.368 31.5789C 113.737 31.5789 114.947 29.6316 114.947 27.6316C 114.947 25.6316 113.789 23.6842 111.579 23.6842C 109.737 23.6842 108.737 24.8947 108.421 25.6842L 108.421 30.7895Z"/>
<path id="path7_fill" d="M 140.75 22.2482C 141.286 21.6592 142.602 20.2105 145.316 20.2105C 149.842 20.2105 151 23.2632 151 26.7368L 151 34.1053C 151 34.4737 150.632 34.7895 150.316 34.7895L 147.842 34.7895C 147.474 34.7895 147.158 34.4737 147.158 34.1053L 147.158 26.7368C 147.158 24.8947 146.421 23.7368 144.684 23.7368C 142.789 23.7368 141.895 24.9474 141.579 25.9474L 141.579 34.1053C 141.579 34.6316 141.368 34.7895 140.684 34.7895L 138.421 34.7895C 138.053 34.7895 137.737 34.4737 137.737 34.1053L 137.737 21.2105C 137.737 20.7895 138.105 20.5263 138.421 20.5263L 140.053 20.5263C 140.421 20.5263 140.737 20.8421 140.737 21.2105L 140.737 22.2632L 140.75 22.2482Z"/>
<path id="path8_fill" fill-rule="evenodd" d="M 166.316 20.8947C 166.632 20.7895 168.895 20.2105 171.211 20.2105C 175.632 20.2105 176.579 22.5263 176.526 26.4211L 176.526 34.0526C 176.526 34.4211 176.211 34.7368 175.842 34.7368L 174.789 34.7368L 174.684 34.7368L 174.421 34.7368C 174.053 34.7368 173.737 34.4211 173.737 34.0526L 173.737 33.2632C 172.895 34.0526 171.474 35.0526 169.263 35.0526C 166.421 35.0526 164.474 33.2105 164.474 30.1579C 164.474 27.6316 166.526 25.6842 170.158 25.6842C 171.579 25.6842 172.895 26.1053 172.895 26.1053C 173 24.2632 172.474 23.4211 170.947 23.4211C 169.684 23.4211 167.789 23.6842 166.947 23.9474C 166.474 24.1053 166.211 23.7368 166.158 23.3158L 165.842 21.7368C 165.737 21.2105 166 21 166.316 20.8947ZM 170.263 32.2632C 171.526 32.2632 172.632 31.2632 172.842 30.7368L 172.842 28.6316C 172.842 28.6316 171.895 28.2105 170.737 28.2105C 169.105 28.2105 168.211 29 168.211 30.2632C 168.211 31.4737 168.947 32.2632 170.263 32.2632Z"/>
<path id="path9_fill" fill-rule="evenodd" d="M 81.3158 25C 81.3158 19.3158 85.8948 14.7368 91.5264 14.7368C 97.1578 14.7368 101.737 19.3158 101.737 25C 101.737 30.7368 97.2632 35.2105 91.5264 35.2105C 85.7894 35.2105 81.3158 30.7368 81.3158 25ZM 97.7894 25C 97.7894 21.5789 94.9474 18.6842 91.5264 18.6842C 88.0526 18.6842 85.2632 21.5263 85.3158 25C 85.3158 28.4737 88.1052 31.2632 91.5264 31.2632C 95 31.2632 97.7894 28.4211 97.7894 25Z"/>
<path id="path10_fill" d="M 202.105 34.1053C 202.105 34.4737 201.789 34.7895 201.421 34.7895L 199.316 34.7895C 198.053 34.7895 196.842 33.5263 196.842 32.3158L 196.842 31.8947L 196.842 15.4211C 196.842 15.0526 197.211 14.7368 197.526 14.7368L 200 14.7368C 200.368 14.7368 200.684 15.1053 200.684 15.4211L 200.684 30.1579L 200.684 30.2632C 200.684 30.5789 201 30.8947 201.316 30.8947L 201.421 30.8947C 201.789 30.8947 202.105 31.2105 202.105 31.5789L 202.105 34.1053Z"/>
<path id="path11_fill" fill-rule="evenodd" d="M 222.579 21.5789L 221.474 21.5789L 221.474 24.5263L 222.053 24.5263L 222.053 23.5263L 222.632 23.5263L 223.158 24.5263L 223.895 24.5263L 223.211 23.3158C 223.526 23.2105 223.737 22.8947 223.737 22.5263C 223.737 21.8421 223.211 21.5789 222.579 21.5789ZM 223.053 22.5789C 223.053 22.8947 222.789 23.0526 222.421 23.0526L 222.421 23.1053L 222.053 23.1053L 222.053 22.1053L 222.474 22.1053C 222.895 22.1053 223.053 22.2632 223.053 22.5789Z"/>
<path id="path12_fill" fill-rule="evenodd" d="M 222.474 20.2105C 221 20.2105 219.737 21.3684 219.737 23.1053C 219.737 24.8421 221 26 222.474 26C 223.947 26 225.211 24.8421 225.211 23.1053C 225.211 21.3684 224 20.2105 222.474 20.2105ZM 222.526 20.7368C 223.737 20.7368 224.684 21.7368 224.684 23.1053C 224.684 24.4737 223.737 25.4737 222.526 25.4211C 221.316 25.4211 220.368 24.4737 220.368 23.1053C 220.368 21.7368 221.316 20.7368 222.526 20.7368Z"/>
</defs>
</svg>
