<svg width="144" height="83" viewBox="0 0 144 83" version="1.1" xmlns="http://www.w3.org/2000/svg" xmlns:xlink="http://www.w3.org/1999/xlink" xmlns:figma="http://www.figma.com/figma/ns">
<title>image</title>
<desc>Created using Figma</desc>
<g id="Canvas" transform="translate(-399 -94)" figma:type="canvas">
<g id="image" style="mix-blend-mode:normal;" figma:type="frame">
<g id="Rectangle 4" style="mix-blend-mode:normal;" figma:type="rounded-rectangle">
<g filter="url(#filter0_i)" figma:type="fill">
<use xlink:href="#path0_fill" transform="matrix(0.965926 -0.258819 0.258819 0.965926 400.381 127.421)" fill="#FAFAFA" style="mix-blend-mode:normal;"/>
</g>
<use xlink:href="#path1_stroke" transform="matrix(0.965926 -0.258819 0.258819 0.965926 400.381 127.421)" fill="#2F80ED" style="mix-blend-mode:normal;"/>
</g>
<g id="fb messenger" style="mix-blend-mode:normal;" figma:type="vector">
<use xlink:href="#path2_stroke" transform="matrix(0.965926 -0.258819 0.258819 0.965926 415.078 135.906)" fill="#2F80ED" style="mix-blend-mode:normal;"/>
</g>
<g id="Rectangle 4" style="mix-blend-mode:normal;" figma:type="rounded-rectangle">
<g filter="url(#filter1_i)" figma:type="fill">
<use xlink:href="#path0_fill" transform="matrix(0.965926 0.258819 -0.258819 0.965926 493.322 114.48)" fill="#FAFAFA" style="mix-blend-mode:normal;"/>
</g>
<use xlink:href="#path1_stroke" transform="matrix(0.965926 0.258819 -0.258819 0.965926 493.322 114.48)" fill="#2F80ED" style="mix-blend-mode:normal;"/>
</g>
<g id="skype" style="mix-blend-mode:normal;" figma:type="vector">
<use xlink:href="#path3_stroke" transform="matrix(0.965926 0.258819 -0.258819 0.965926 501.808 129.177)" fill="#2F80ED" style="mix-blend-mode:normal;"/>
</g>
<g id="Rectangle 4" style="mix-blend-mode:normal;" figma:type="rounded-rectangle">
<g filter="url(#filter2_i)" figma:type="fill">
<use xlink:href="#path4_fill" transform="translate(441.381 95.48)" fill="#FAFAFA" style="mix-blend-mode:normal;"/>
</g>
<use xlink:href="#path5_stroke" transform="translate(441.381 95.48)" fill="#2F80ED" style="mix-blend-mode:normal;"/>
</g>
<g id="Union" style="mix-blend-mode:normal;" figma:type="vector">
<use xlink:href="#path6_stroke" transform="translate(453.381 107.48)" fill="#2F80ED" style="mix-blend-mode:normal;"/>
</g>
</g>
</g>
<defs>
<filter id="filter0_i" filterUnits="userSpaceOnUse" x="399" y="113" width="64" height="64" color-interpolation-filters="sRGB">
<feFlood flood-opacity="0" result="BackgroundImageFix"/>
<feBlend mode="normal" in="SourceGraphic" in2="BackgroundImageFix" result="shape"/>
<desc>type="innerShadow" x="0" y="-4" size="0" spread="0" color="0,0,0,0.05" blend="normal"</desc>
<feColorMatrix in="SourceAlpha" type="matrix" values="0 0 0 0 0 0 0 0 0 0 0 0 0 0 0 0 0 0 255 0" result="hardAlpha"/>
<feOffset dx="0" dy="-4"/>
<feComposite in2="hardAlpha" operator="arithmetic" k2="-1" k3="1"/>
<feColorMatrix type="matrix" values="0 0 0 0 0 0 0 0 0 0 0 0 0 0 0 0 0 0 0.05 0"/>
<feBlend mode="normal" in2="shape" result="effect1_innerShadow"/>
</filter>
<filter id="filter1_i" filterUnits="userSpaceOnUse" x="479" y="113" width="64" height="64" color-interpolation-filters="sRGB">
<feFlood flood-opacity="0" result="BackgroundImageFix"/>
<feBlend mode="normal" in="SourceGraphic" in2="BackgroundImageFix" result="shape"/>
<desc>type="innerShadow" x="0" y="-4" size="0" spread="0" color="0,0,0,0.05" blend="normal"</desc>
<feColorMatrix in="SourceAlpha" type="matrix" values="0 0 0 0 0 0 0 0 0 0 0 0 0 0 0 0 0 0 255 0" result="hardAlpha"/>
<feOffset dx="0" dy="-4"/>
<feComposite in2="hardAlpha" operator="arithmetic" k2="-1" k3="1"/>
<feColorMatrix type="matrix" values="0 0 0 0 0 0 0 0 0 0 0 0 0 0 0 0 0 0 0.05 0"/>
<feBlend mode="normal" in2="shape" result="effect1_innerShadow"/>
</filter>
<filter id="filter2_i" filterUnits="userSpaceOnUse" x="440" y="94" width="62" height="62" color-interpolation-filters="sRGB">
<feFlood flood-opacity="0" result="BackgroundImageFix"/>
<feBlend mode="normal" in="SourceGraphic" in2="BackgroundImageFix" result="shape"/>
<desc>type="innerShadow" x="0" y="-4" size="0" spread="0" color="0,0,0,0.05" blend="normal"</desc>
<feColorMatrix in="SourceAlpha" type="matrix" values="0 0 0 0 0 0 0 0 0 0 0 0 0 0 0 0 0 0 255 0" result="hardAlpha"/>
<feOffset dx="0" dy="-4"/>
<feComposite in2="hardAlpha" operator="arithmetic" k2="-1" k3="1"/>
<feColorMatrix type="matrix" values="0 0 0 0 0 0 0 0 0 0 0 0 0 0 0 0 0 0 0.05 0"/>
<feBlend mode="normal" in2="shape" result="effect1_innerShadow"/>
</filter>
<path id="path0_fill" d="M 0 4C 0 1.79086 1.79086 0 4 0L 46 0C 48.2091 0 50 1.79086 50 4L 50 46C 50 48.2091 48.2091 50 46 50L 4 50C 1.79086 50 0 48.2091 0 46L 0 4Z"/>
<path id="path1_stroke" d="M 4 0.5L 46 0.5L 46 -0.5L 4 -0.5L 4 0.5ZM 49.5 4L 49.5 46L 50.5 46L 50.5 4L 49.5 4ZM 46 49.5L 4 49.5L 4 50.5L 46 50.5L 46 49.5ZM 0.5 46L 0.5 4L -0.5 4L -0.5 46L 0.5 46ZM 4 -0.5C 1.51472 -0.5 -0.5 1.51472 -0.5 4L 0.5 4C 0.5 2.067 2.067 0.5 4 0.5L 4 -0.5ZM 46 0.5C 47.933 0.5 49.5 2.067 49.5 4L 50.5 4C 50.5 1.51472 48.4853 -0.5 46 -0.5L 46 0.5ZM 49.5 46C 49.5 47.933 47.933 49.5 46 49.5L 46 50.5C 48.4853 50.5 50.5 48.4853 50.5 46L 49.5 46ZM 4 49.5C 2.067 49.5 0.5 47.933 0.5 46L -0.5 46C -0.5 48.4853 1.51472 50.5 4 50.5L 4 49.5Z"/>
<path id="path2_stroke" d="M 4.84472 21.4099L 5.34472 21.4099L 5.34472 21.1592L 5.14388 21.0092L 4.84472 21.4099ZM 4.84472 26L 4.34472 26L 4.34472 26.8453L 5.08551 26.4382L 4.84472 26ZM 9.26957 23.5685L 9.40397 23.0869L 9.20752 23.0321L 9.02877 23.1303L 9.26957 23.5685ZM 14.2919 16.2099L 13.9272 16.5519L 14.2911 16.94L 14.6559 16.5527L 14.2919 16.2099ZM 10.9814 12.679L 11.3461 12.337L 11.0813 12.0546L 10.7416 12.2403L 10.9814 12.679ZM 4.52174 16.2099L 4.15779 15.867L 4.76155 16.6486L 4.52174 16.2099ZM 11.6273 8.66667L 11.9879 8.32031L 11.6238 7.9412L 11.2634 8.32383L 11.6273 8.66667ZM 15.0186 12.1975L 14.658 12.5439L 14.9244 12.8212L 15.2608 12.635L 15.0186 12.1975ZM 21.3975 8.66667L 21.7615 9.00951L 21.1554 8.22921L 21.3975 8.66667ZM 13 -0.5C 5.58247 -0.5 -0.5 5.08097 -0.5 12.037L 0.5 12.037C 0.5 5.70422 6.06101 0.5 13 0.5L 13 -0.5ZM -0.5 12.037C -0.5 15.9979 1.47681 19.519 4.54556 21.8105L 5.14388 21.0092C 2.30207 18.8872 0.5 15.6515 0.5 12.037L -0.5 12.037ZM 4.34472 21.4099L 4.34472 26L 5.34472 26L 5.34472 21.4099L 4.34472 21.4099ZM 5.08551 26.4382L 9.51036 24.0067L 9.02877 23.1303L 4.60393 25.5618L 5.08551 26.4382ZM 9.13516 24.0501C 10.3461 24.3869 11.665 24.5728 13 24.5741L 13 23.5741C 11.735 23.5753 10.5508 23.4081 9.40397 23.0869L 9.13516 24.0501ZM 13 24.5741C 20.4175 24.5741 26.5 18.9931 26.5 12.037L 25.5 12.037C 25.5 18.3699 19.939 23.5741 13 23.5741L 13 24.5741ZM 26.5 12.037C 26.5 5.08097 20.4175 -0.5 13 -0.5L 13 0.5C 19.939 0.5 25.5 5.70422 25.5 12.037L 26.5 12.037ZM 14.6567 15.8679L 11.3461 12.337L 10.6166 13.021L 13.9272 16.5519L 14.6567 15.8679ZM 10.7416 12.2403L 4.28192 15.7711L 4.76155 16.6486L 11.2212 13.1177L 10.7416 12.2403ZM 4.88569 16.5527L 11.9913 9.00951L 11.2634 8.32383L 4.15779 15.867L 4.88569 16.5527ZM 11.2667 9.01302L 14.658 12.5439L 15.3792 11.8512L 11.9879 8.32031L 11.2667 9.01302ZM 15.2608 12.635L 21.6397 9.10412L 21.1554 8.22921L 14.7765 11.7601L 15.2608 12.635ZM 21.0336 8.32383L 13.928 15.867L 14.6559 16.5527L 21.7615 9.00951L 21.0336 8.32383Z"/>
<path id="path3_stroke" d="M 25.6281 16.6505L 26.1009 16.4876L 26.0983 16.4803L 25.6281 16.6505ZM 25.461 14.5074L 24.9631 14.4615L 24.9629 14.4635L 25.461 14.5074ZM 24.3467 7.96807L 23.8963 8.18517L 23.8983 8.18924L 24.3467 7.96807ZM 15.9897 1.2639L 15.8424 1.74172L 15.8553 1.74568L 15.8683 1.74894L 15.9897 1.2639ZM 10.1955 0.659427L 9.96095 1.10101L 9.97753 1.10982L 9.99473 1.11736L 10.1955 0.659427ZM 0.445599 9.50673L 0.92475 9.36385L 0.919874 9.3475L 0.913893 9.33151L 0.445599 9.50673ZM 1.05845 16.3758L 0.573775 16.4986L 0.576329 16.5087L 0.579298 16.5186L 1.05845 16.3758ZM 10.9755 25.278L 10.8897 25.7706L 10.902 25.7727L 10.9143 25.7743L 10.9755 25.278ZM 13.7611 25.3879L 13.7397 24.8884L 13.7388 24.8884L 13.7611 25.3879ZM 15.8225 25.4978L 15.6014 25.9463L 15.6199 25.9554L 15.639 25.9629L 15.8225 25.4978ZM 16.9925 25.8275L 16.8364 26.3025L 16.9124 26.3275L 16.9925 26.3275L 16.9925 25.8275ZM 17.0482 25.8275L 17.168 25.3421L 17.109 25.3275L 17.0482 25.3275L 17.0482 25.8275ZM 20.2796 25.8825L 20.3706 26.3742L 20.385 26.3715L 20.3993 26.3679L 20.2796 25.8825ZM 23.2882 24.3988L 22.9864 24.0001L 22.969 24.0133L 22.9528 24.0279L 23.2882 24.3988ZM 19.8339 18.354L 19.385 18.1338L 19.3811 18.1421L 19.8339 18.354ZM 15.4883 21.3215L 15.3915 20.8309L 15.4883 21.8215L 15.4883 21.3215ZM 15.544 21.3215L 15.6407 21.812L 15.544 20.8215L 15.544 21.3215ZM 10.5855 21.3215L 10.4887 21.8121L 10.4972 21.8136L 10.5855 21.3215ZM 6.29553 18.2991L 5.84678 18.5197L 5.84956 18.5252L 6.29553 18.2991ZM 9.58263 16.5956L 10.0287 16.3694L 10.0242 16.3611L 9.58263 16.5956ZM 12.7583 18.8486L 12.7075 19.346L 12.723 19.3476L 12.7386 19.3482L 12.7583 18.8486ZM 15.934 17.9144L 15.5829 17.5584L 15.934 17.9144ZM 16.1568 15.7163L 16.5452 15.4014L 16.5352 15.3891L 16.5245 15.3775L 16.1568 15.7163ZM 12.7583 14.2876L 12.8752 13.8014L 12.8741 13.8012L 12.7583 14.2876ZM 7.57694 12.1994L 7.91831 11.8341L 7.91252 11.8287L 7.90656 11.8234L 7.57694 12.1994ZM 7.52122 6.42941L 7.17011 6.07343L 7.52122 6.42941ZM 18.4411 6.3195L 18.7616 5.93549L 18.7508 5.92698L 18.4411 6.3195ZM 18.6639 10.331L 18.8851 10.7794L 18.6639 10.331ZM 16.1011 9.34188L 15.6779 9.60818L 15.6823 9.6151L 15.6869 9.62187L 16.1011 9.34188ZM 12.5912 7.4735L 12.6146 7.97302L 12.6229 7.97249L 12.5912 7.4735ZM 10.1398 8.46264L 9.71947 8.19148L 9.71259 8.20279L 10.1398 8.46264ZM 10.2512 9.83644L 9.85857 10.146L 9.86971 10.1602L 9.88184 10.1735L 10.2512 9.83644ZM 13.5383 11.1003L 13.6562 10.6143L 13.6441 10.6117L 13.5383 11.1003ZM 19.2768 13.5732L 18.9065 13.9091L 18.9158 13.9194L 18.9257 13.9292L 19.2768 13.5732ZM 26.0983 16.4803C 25.9623 16.1052 25.9102 15.9514 25.897 15.7274C 25.8774 15.4845 25.9035 15.1815 25.9591 14.5513L 24.9629 14.4635C 24.9071 15.0972 24.8774 15.4811 24.8997 15.8014C 24.9283 16.1407 25.0154 16.4265 25.158 16.8207L 26.0983 16.4803ZM 25.9589 14.5533C 26.1836 12.0728 25.826 9.8495 24.7952 7.7469L 23.8983 8.18924C 24.8732 10.1531 25.1841 12.1062 24.9631 14.4615L 25.9589 14.5533ZM 24.7971 7.75097C 23.1147 4.26048 19.9828 1.74781 16.1111 0.778859L 15.8683 1.74894C 19.4622 2.64837 22.3473 4.97149 23.8963 8.18517L 24.7971 7.75097ZM 16.137 0.786083C 15.1948 0.498539 14.5078 0.434687 12.814 0.434188L 12.814 1.43419C 14.4631 1.43369 15.0018 1.47974 15.8424 1.74172L 16.137 0.786083ZM 12.814 0.434188C 11.9012 0.43423 11.4003 0.421661 11.0599 0.382442C 10.7532 0.350736 10.6297 0.304245 10.3962 0.201494L 9.99473 1.11736C 10.2626 1.23442 10.5291 1.32531 10.9468 1.37603C 11.3307 1.41924 11.8883 1.43415 12.814 1.43419L 12.814 0.434188ZM 10.43 0.217842C 9.61956 -0.212588 8.30988 -0.5 7.24266 -0.5L 7.24266 0.5C 8.18113 0.5 9.32284 0.76211 9.96095 1.10101L 10.43 0.217842ZM 7.24266 -0.5C 1.89704 -0.5 -1.87819 4.72287 -0.0226942 9.68195L 0.913893 9.33151C -0.684856 5.05862 2.55983 0.5 7.24266 0.5L 7.24266 -0.5ZM -0.0335514 9.64961C 0.106125 10.118 0.178621 10.3489 0.220157 10.7493C 0.267029 11.1744 0.279913 11.7654 0.279881 12.9138L 1.27988 12.9138C 1.27985 11.7541 1.26488 11.1088 1.21425 10.6408C 1.15829 10.1483 1.06364 9.82964 0.92475 9.36385L -0.0335514 9.64961ZM 0.279881 12.9138C 0.279881 15.0124 0.335219 15.5574 0.573775 16.4986L 1.54312 16.2529C 1.33597 15.4356 1.27988 14.9915 1.27988 12.9138L 0.279881 12.9138ZM 0.579298 16.5186C 2.02518 21.3675 5.96329 24.9131 10.8897 25.7706L 11.0612 24.7854C 6.51634 23.9943 2.87739 20.7259 1.5376 16.2329L 0.579298 16.5186ZM 10.9143 25.7743C 11.8158 25.8853 12.5261 25.9428 13.7835 25.8874L 13.7388 24.8884C 12.5447 24.943 11.918 24.8905 11.0367 24.7818L 10.9143 25.7743ZM 13.7826 25.8875C 14.4205 25.8601 14.8306 25.8467 15.1251 25.86C 15.4062 25.8723 15.5227 25.9074 15.6014 25.9463L 16.0437 25.0494C 15.7881 24.9234 15.5146 24.8761 15.1689 24.8609C 14.8366 24.8467 14.3832 24.8608 13.7397 24.8884L 13.7826 25.8875ZM 15.639 25.9629C 15.8062 26.0279 16.0455 26.0918 16.2633 26.1472C 16.481 26.2026 16.6874 26.2532 16.8364 26.3025L 17.1487 25.3525C 16.9634 25.292 16.7241 25.2326 16.51 25.1781C 16.296 25.1237 16.1174 25.0776 16.0061 25.0327L 15.639 25.9629ZM 16.9925 26.3275L 17.0482 26.3275L 17.0482 25.3275L 16.9925 25.3275L 16.9925 26.3275ZM 16.9285 26.313C 17.9002 26.5526 19.4217 26.5496 20.3706 26.3742L 20.1887 25.3908C 19.3548 25.545 17.9792 25.5421 17.168 25.3421L 16.9285 26.313ZM 20.3993 26.3679C 21.342 26.1355 22.8748 25.4466 23.6235 24.7697L 22.9528 24.0279C 22.3644 24.5599 21.0001 25.1899 20.1599 25.397L 20.3993 26.3679ZM 23.5899 24.7974C 26.1634 22.8495 27.1163 19.4333 26.1008 16.4876L 25.1554 16.8135C 26.0343 19.363 25.2043 22.3212 22.9864 24.0001L 23.5899 24.7974ZM 19.3811 18.1421C 18.8 19.3838 17.2381 20.4666 15.3915 20.8309L 15.585 21.812C 17.6384 21.4069 19.5307 20.1817 20.2868 18.566L 19.3811 18.1421ZM 15.4883 21.8215L 15.544 21.8215L 15.544 20.8215L 15.4883 20.8215L 15.4883 21.8215ZM 15.4472 20.8309C 14.3996 21.0376 11.8441 21.0392 10.6737 20.8293L 10.4972 21.8136C 11.7782 22.0433 14.4598 22.045 15.6407 21.812L 15.4472 20.8309ZM 10.6822 20.8309C 8.85721 20.4709 7.44082 19.4525 6.7415 18.073L 5.84956 18.5252C 6.71022 20.223 8.41379 21.4027 10.4887 21.812L 10.6822 20.8309ZM 6.74424 18.0785C 6.33398 17.2439 6.31998 16.5971 6.49528 16.1998C 6.65401 15.8402 7.02687 15.5569 7.74408 15.5569L 7.74408 14.5569C 6.73417 14.5569 5.93705 14.988 5.58042 15.7961C 5.24037 16.5666 5.36566 17.5408 5.84681 18.5197L 6.74424 18.0785ZM 7.74408 15.5569C 8.05834 15.5511 8.19993 15.5914 8.40399 15.776C 8.61269 15.9517 8.84071 16.2646 9.14104 16.8301L 10.0242 16.3611C 9.71169 15.7726 9.41044 15.3161 9.04807 15.011C 8.68107 14.7148 8.20981 14.5627 7.74408 14.5569L 7.74408 15.5569ZM 9.13666 16.8216C 9.56931 17.6751 10.0057 18.2838 10.5939 18.6899C 11.1842 19.0975 11.8689 19.2605 12.7075 19.346L 12.8091 18.3512C 12.032 18.2719 11.5467 18.1326 11.1621 17.867C 10.7753 17.6 10.4317 17.1646 10.0286 16.3695L 9.13666 16.8216ZM 12.7386 19.3482C 14.1963 19.4057 15.4201 19.1235 16.2851 18.2704L 15.5829 17.5584C 14.9993 18.1341 14.106 18.4014 12.778 18.349L 12.7386 19.3482ZM 16.2851 18.2704C 16.5244 18.0343 16.73 17.8247 16.8505 17.5762C 16.9815 17.3059 16.9911 17.0376 16.9911 16.7604L 15.9911 16.7604C 15.9911 17.0328 15.9728 17.0942 15.9507 17.1399C 15.918 17.2073 15.845 17.2999 15.5829 17.5584L 16.2851 18.2704ZM 16.9911 16.7604C 16.9898 16.4497 16.9488 16.1738 16.8791 15.9691C 16.7984 15.7524 16.6699 15.556 16.5452 15.4014L 15.7685 16.0313C 15.8666 16.1515 15.9053 16.2023 15.936 16.3016C 15.9778 16.4129 15.9924 16.5216 15.9911 16.7604L 16.9911 16.7604ZM 16.5245 15.3775C 15.8536 14.6496 15.1545 14.3498 12.8752 13.8014L 12.6414 14.7737C 14.9306 15.3244 15.3458 15.5741 15.7892 16.0552L 16.5245 15.3775ZM 12.8741 13.8012C 9.63466 13.0299 8.86857 12.722 7.91831 11.8341L 7.23557 12.5647C 8.40242 13.6551 9.41917 14.0066 12.6425 14.774L 12.8741 13.8012ZM 7.90656 11.8234C 7.42569 11.4018 7.2037 11.1214 7.08029 10.8121C 6.95163 10.4895 6.90695 10.0799 6.90695 9.34188L 5.90695 9.34188C 5.90695 10.0876 5.94585 10.6671 6.15146 11.1826C 6.36234 11.7112 6.72534 12.1177 7.24732 12.5754L 7.90656 11.8234ZM 6.90695 9.34188C 6.90695 8.6061 6.95097 8.19042 7.07691 7.85559C 7.20521 7.49824 7.42114 7.22894 7.87234 6.78539L 7.17011 6.07343C 6.67418 6.56407 6.33298 7.00914 6.14092 7.50355C 5.9465 8.02048 5.90695 8.59394 5.90695 9.34188L 6.90695 9.34188ZM 7.87234 6.78539C 8.90693 5.76493 10.5319 5.22589 13.0926 5.22589L 13.0926 4.22589C 10.4162 4.22589 8.47549 4.78589 7.17011 6.07343L 7.87234 6.78539ZM 13.0926 5.22589C 15.514 5.22589 16.8456 5.69749 18.1314 6.71202L 18.7508 5.92698C 17.2509 4.74342 15.6854 4.22589 13.0926 4.22589L 13.0926 5.22589ZM 18.1207 6.70338C 18.7409 7.22097 19.0638 7.93088 19.0979 8.55845C 19.1319 9.18567 18.8851 9.66447 18.4428 9.88258L 18.8851 10.7794C 19.78 10.3381 20.1459 9.41565 20.0964 8.50421C 20.0469 7.59312 19.5898 6.62699 18.7615 5.93563L 18.1207 6.70338ZM 18.4428 9.88258C 18.0336 10.0844 17.7374 10.0901 17.4825 9.98955C 17.2014 9.87865 16.8819 9.60418 16.5154 9.06188L 15.6869 9.62187C 16.1003 10.2336 16.5608 10.7009 17.1155 10.9198C 17.6963 11.1489 18.2914 11.0722 18.8851 10.7794L 18.4428 9.88258ZM 16.5243 9.07557C 16.0067 8.25311 15.5033 7.66919 14.8502 7.3262C 14.1935 6.98132 13.457 6.91739 12.5594 6.97451L 12.6229 7.97249C 13.4524 7.9197 13.9695 7.99315 14.3853 8.21153C 14.8047 8.43181 15.1927 8.83703 15.6779 9.60818L 16.5243 9.07557ZM 12.5677 6.97405C 11.3614 7.03071 10.2481 7.37245 9.71962 8.19157L 10.5599 8.73371C 10.8114 8.34388 11.481 8.02619 12.6146 7.97295L 12.5677 6.97405ZM 9.71259 8.20279C 9.51931 8.52052 9.39026 8.85206 9.42626 9.21897C 9.46133 9.5764 9.6452 9.87546 9.85857 10.146L 10.6438 9.52684C 10.4672 9.30286 10.4282 9.18978 10.4215 9.12133C 10.4157 9.06236 10.4259 8.95428 10.5669 8.72249L 9.71259 8.20279ZM 9.88184 10.1735C 10.5069 10.8584 11.172 11.0996 13.4325 11.589L 13.6441 10.6117C 11.3361 10.112 10.9984 9.91349 10.6205 9.49943L 9.88184 10.1735ZM 13.4204 11.5863C 16.8269 12.4125 18.0741 12.9915 18.9065 13.9091L 19.6471 13.2373C 18.5852 12.0667 17.0468 11.4368 13.6561 10.6144L 13.4204 11.5863ZM 18.9257 13.9292C 19.8613 14.852 20.1428 16.5891 19.385 18.1338L 20.2828 18.5743C 21.1964 16.7119 20.9208 14.4925 19.6279 13.2172L 18.9257 13.9292Z"/>
<path id="path4_fill" d="M 0 4C 0 1.79086 1.79086 0 4 0L 56 0C 58.2091 0 60 1.79086 60 4L 60 56C 60 58.2091 58.2091 60 56 60L 4 60C 1.79086 60 0 58.2091 0 56L 0 4Z"/>
<path id="path5_stroke" d="M 4 0.5L 56 0.5L 56 -0.5L 4 -0.5L 4 0.5ZM 59.5 4L 59.5 56L 60.5 56L 60.5 4L 59.5 4ZM 56 59.5L 4 59.5L 4 60.5L 56 60.5L 56 59.5ZM 0.5 56L 0.5 4L -0.5 4L -0.5 56L 0.5 56ZM 4 -0.5C 1.51472 -0.5 -0.5 1.51472 -0.5 4L 0.5 4C 0.5 2.067 2.067 0.5 4 0.5L 4 -0.5ZM 56 0.5C 57.933 0.5 59.5 2.067 59.5 4L 60.5 4C 60.5 1.51472 58.4853 -0.5 56 -0.5L 56 0.5ZM 59.5 56C 59.5 57.933 57.933 59.5 56 59.5L 56 60.5C 58.4853 60.5 60.5 58.4853 60.5 56L 59.5 56ZM 4 59.5C 2.067 59.5 0.5 57.933 0.5 56L -0.5 56C -0.5 58.4853 1.51472 60.5 4 60.5L 4 59.5Z"/>
<path id="path6_stroke" d="M 25.524 29.582L 25.0498 29.7406L 25.0512 29.7446L 25.524 29.582ZM 24.3241 25.9942L 24.7983 25.8356L 24.6384 25.3573L 24.1614 25.5214L 24.3241 25.9942ZM 17.6519 28.2903L 17.4892 27.8175L 17.019 27.9793L 17.1782 28.4504L 17.6519 28.2903ZM 17.6563 28.3033L 17.8192 28.776L 18.2891 28.6141L 18.13 28.1432L 17.6563 28.3033ZM 17.6473 28.3064L 17.4844 27.8337L 17.0161 27.995L 17.173 28.4648L 17.6473 28.3064ZM 18.8291 31.8442L 18.3549 32.0027L 18.3659 32.0355L 18.3813 32.0665L 18.8291 31.8442ZM 18.878 31.9918L 19.3587 31.8543L 19.3461 31.8104L 19.3259 31.7695L 18.878 31.9918ZM 16.8744 35.8525L 16.9875 36.3395L 17.0119 36.3339L 17.0357 36.3258L 16.8744 35.8525ZM 12.8918 33.8607L 12.4176 34.0192L 12.419 34.0233L 12.8918 33.8607ZM 11.7124 30.3341L 12.1866 30.1755L 12.0267 29.6972L 11.5498 29.8613L 11.7124 30.3341ZM 8.39592 31.4754L 8.23321 31.0026L 8.22674 31.0049L 8.39592 31.4754ZM 7.32085 31.6721L 7.32085 32.1721L 7.3376 32.1721L 7.35432 32.171L 7.32085 31.6721ZM 4.41325 29.6558L 4.88695 29.4957L 4.87614 29.4637L 4.86113 29.4335L 4.41325 29.6558ZM 4.36443 29.5082L 3.88371 29.6457L 3.89626 29.6896L 3.91655 29.7305L 4.36443 29.5082ZM 6.36797 25.6475L 6.20675 25.1742L 6.20675 25.1742L 6.36797 25.6475ZM 9.75896 24.4925L 9.92017 24.9658L 10.3908 24.8055L 10.2331 24.3339L 9.75896 24.4925ZM 7.48882 17.7041L 7.963 17.5455L 7.80316 17.0675L 7.32646 17.2312L 7.48882 17.7041ZM 4.12004 18.8607L 3.95767 18.3877L 3.95094 18.3901L 4.12004 18.8607ZM 0.161789 17.0164L 0.633614 16.8509L 0.623395 16.8218L 0.609668 16.7941L 0.161789 17.0164ZM 0.112961 16.8688L -0.369631 16.9996L -0.356772 17.0471L -0.334917 17.0911L 0.112961 16.8688ZM 2.14092 13.0328L 1.98134 12.5589L 1.97968 12.5595L 2.14092 13.0328ZM 5.54338 11.887L 5.70296 12.3608L 6.17581 12.2016L 6.01757 11.7284L 5.54338 11.887ZM 4.38884 8.43445L 4.86303 8.27588L 4.85207 8.24312L 4.83672 8.21218L 4.38884 8.43445ZM 4.34001 8.28687L 3.85929 8.42437L 3.87184 8.46825L 3.89213 8.50914L 4.34001 8.28687ZM 6.34355 4.42621L 6.19563 3.94838L 6.18233 3.95291L 6.34355 4.42621ZM 10.3262 6.39343L 10.8005 6.23499L 10.799 6.2308L 10.3262 6.39343ZM 11.4922 9.88367L 11.018 10.0421L 11.1768 10.5175L 11.6518 10.3575L 11.4922 9.88367ZM 18.183 7.63049L 18.3426 8.10435L 18.8155 7.94511L 18.6572 7.47192L 18.183 7.63049ZM 17.021 4.15576L 16.5463 4.31282L 16.5469 4.31434L 17.021 4.15576ZM 16.9722 4.00818L 16.4915 4.14569L 16.4943 4.15552L 16.4975 4.16523L 16.9722 4.00818ZM 18.9758 0.147522L 18.8376 -0.333016L 18.826 -0.329672L 18.8145 -0.325769L 18.9758 0.147522ZM 21.3947 0.319702L 21.1699 0.766382L 21.1758 0.769238L 21.3947 0.319702ZM 22.9584 2.13934L 22.4808 2.28761L 22.4843 2.29805L 22.9584 2.13934ZM 24.1227 5.61774L 23.6486 5.77644L 23.8079 6.25236L 24.2832 6.09128L 24.1227 5.61774ZM 24.1557 5.60657L 24.63 5.44845L 24.4711 4.97174L 23.9952 5.13302L 24.1557 5.60657ZM 24.1595 5.61792L 23.6851 5.77603L 23.8437 6.25183L 24.319 6.09177L 24.1595 5.61792ZM 27.6253 4.45081L 27.4774 3.97302L 27.4657 3.97695L 27.6253 4.45081ZM 28.5538 4.30328L 28.5538 3.80328L 28.5344 3.80328L 28.5152 3.80478L 28.5538 4.30328ZM 31.5347 6.39343L 31.0619 6.55606L 31.0657 6.56709L 31.07 6.57793L 31.5347 6.39343ZM 31.5835 6.51642L 32.0653 6.38266L 32.0581 6.35683L 32.0483 6.33192L 31.5835 6.51642ZM 29.4578 10.1558L 29.3013 9.6809L 29.2938 9.68336L 29.2864 9.68605L 29.4578 10.1558ZM 26.0582 11.3259L 25.8956 10.8531L 25.4255 11.0147L 25.5844 11.4858L 26.0582 11.3259ZM 26.0616 11.3361L 26.2248 11.8087L 26.694 11.6466L 26.5353 11.1762L 26.0616 11.3361ZM 26.0395 11.3437L 25.8763 10.8711L 25.4081 11.0327L 25.5653 11.5024L 26.0395 11.3437ZM 28.3241 18.1689L 27.85 18.3277L 28.0096 18.8043L 28.4853 18.6422L 28.3241 18.1689ZM 31.8523 16.9672L 31.7043 16.4894L 31.6911 16.4939L 31.8523 16.9672ZM 35.835 18.8607L 35.3632 19.0261L 35.3666 19.036L 35.3705 19.0456L 35.835 18.8607ZM 35.884 18.9836L 36.365 18.8471L 36.358 18.8224L 36.3485 18.7986L 35.884 18.9836ZM 35.493 21.5901L 35.9126 21.862L 35.9139 21.86L 35.493 21.5901ZM 33.9781 22.6721L 34.1408 23.1449L 34.1624 23.1375L 34.1831 23.1281L 33.9781 22.6721ZM 30.2642 23.9508L 30.353 24.4429L 30.3908 24.436L 30.427 24.4236L 30.2642 23.9508ZM 30.2598 23.9516L 30.171 23.4596L 29.6022 23.5622L 29.7857 24.1103L 30.2598 23.9516ZM 31.4613 27.541L 31.9358 27.3832L 31.9355 27.3822L 31.4613 27.541ZM 31.4859 27.6147L 31.9658 27.4745L 31.9632 27.4657L 31.9603 27.457L 31.4859 27.6147ZM 29.4822 31.5246L 29.321 31.0513L 29.3047 31.0568L 29.2889 31.0635L 29.4822 31.5246ZM 15.6972 22.4698L 15.223 22.6283L 15.3823 23.1053L 15.8584 22.9431L 15.6972 22.4698ZM 13.4241 15.6661L 13.2356 15.203L 12.8013 15.3797L 12.9499 15.8245L 13.4241 15.6661ZM 22.384 20.1923L 22.5452 20.6656L 23.0158 20.5052L 22.8581 20.0337L 22.384 20.1923ZM 20.1032 13.3722L 20.5774 13.2136L 20.4175 12.7356L 19.9408 12.8993L 20.1032 13.3722ZM 13.4294 15.6639L 13.267 15.191L 13.2538 15.1956L 13.2409 15.2008L 13.4294 15.6639ZM 25.0512 29.7446C 25.5604 31.225 26.9474 32.2213 28.5293 32.2213L 28.5293 31.2213C 27.3747 31.2213 26.3672 30.4963 25.9968 29.4193L 25.0512 29.7446ZM 23.85 26.1528L 25.0498 29.7405L 25.9982 29.4234L 24.7983 25.8356L 23.85 26.1528ZM 17.8146 28.7631L 24.4868 26.467L 24.1614 25.5214L 17.4892 27.8175L 17.8146 28.7631ZM 18.13 28.1432L 18.1256 28.1302L 17.1782 28.4504L 17.1826 28.4634L 18.13 28.1432ZM 17.8102 28.7791L 17.8192 28.776L 17.4934 27.8306L 17.4844 27.8337L 17.8102 28.7791ZM 19.3034 31.6858L 18.1215 28.148L 17.173 28.4648L 18.3549 32.0027L 19.3034 31.6858ZM 19.3388 31.7976C 19.3327 31.773 19.3107 31.6965 19.277 31.622L 18.3813 32.0665C 18.3725 32.0489 18.3679 32.035 18.3661 32.0293C 18.3652 32.0265 18.365 32.0254 18.3654 32.0271C 18.3659 32.0291 18.3666 32.0317 18.3683 32.0384L 19.3388 31.7976ZM 19.3259 31.7695C 19.3346 31.7872 19.3392 31.801 19.341 31.8068C 19.3419 31.8095 19.3421 31.8106 19.3417 31.809C 19.3412 31.807 19.3405 31.8043 19.3388 31.7976L 18.3683 32.0384C 18.3744 32.063 18.3964 32.1396 18.4301 32.2141L 19.3259 31.7695ZM 17.0357 36.3258C 18.8791 35.6978 19.8954 33.7304 19.3587 31.8543L 18.3973 32.1293C 18.7891 33.499 18.0463 34.9251 16.7132 35.3792L 17.0357 36.3258ZM 15.8971 36.5C 16.2678 36.4972 16.6661 36.4141 16.9875 36.3395L 16.7614 35.3654C 16.4476 35.4383 16.1617 35.5028 15.8971 35.5L 15.8971 36.5ZM 12.419 34.0233C 12.9282 35.5037 14.3152 36.5 15.8971 36.5L 15.8971 35.5C 14.7425 35.5 13.735 34.775 13.3646 33.698L 12.419 34.0233ZM 11.2383 30.4927L 12.4176 34.0192L 13.366 33.7021L 12.1866 30.1755L 11.2383 30.4927ZM 8.55862 31.9482L 11.8751 30.8069L 11.5498 29.8613L 8.23322 31.0026L 8.55862 31.9482ZM 7.35432 32.171C 7.73741 32.145 8.17235 32.0841 8.5651 31.9459L 8.22674 31.0049C 7.9354 31.1126 7.63744 31.15 7.28737 31.1732L 7.35432 32.171ZM 3.93956 29.8158C 4.42821 31.2621 5.77723 32.1721 7.32085 32.1721L 7.32085 31.1721C 6.17671 31.1721 5.22911 30.5084 4.88695 29.4957L 3.93956 29.8158ZM 3.90356 29.7024C 3.90966 29.727 3.93169 29.8035 3.96538 29.878L 4.86113 29.4335C 4.86989 29.4511 4.87452 29.465 4.87631 29.4707C 4.87716 29.4735 4.87742 29.4746 4.87699 29.4729C 4.87645 29.4709 4.87579 29.4683 4.87412 29.4616L 3.90356 29.7024ZM 3.91655 29.7305C 3.90779 29.7128 3.90316 29.699 3.90137 29.6932C 3.90052 29.6905 3.90026 29.6894 3.90069 29.691C 3.90123 29.693 3.90189 29.6957 3.90356 29.7024L 4.87412 29.4616C 4.86802 29.437 4.84598 29.3604 4.8123 29.2859L 3.91655 29.7305ZM 6.20675 25.1742C 4.36329 25.8022 3.34704 27.7695 3.88371 29.6457L 4.84515 29.3707C 4.45334 28.001 5.19612 26.5749 6.52919 26.1208L 6.20675 25.1742ZM 9.59774 24.0192L 6.20675 25.1742L 6.52918 26.1208L 9.92017 24.9658L 9.59774 24.0192ZM 7.01463 17.8627L 9.28477 24.6511L 10.2331 24.3339L 7.963 17.5455L 7.01463 17.8627ZM 4.2824 19.3336L 7.65117 18.177L 7.32646 17.2312L 3.95768 18.3878L 4.2824 19.3336ZM 3.06938 19.5574C 3.48898 19.5546 3.91558 19.4643 4.28914 19.3312L 3.95094 18.3901C 3.64042 18.5029 3.38294 18.5602 3.06938 18.5574L 3.06938 19.5574ZM -0.310036 17.1819C 0.201425 18.6403 1.5173 19.5574 3.06938 19.5574L 3.06938 18.5574C 1.93372 18.5574 1.00179 17.9008 0.633614 16.8509L -0.310036 17.1819ZM -0.347908 17.063C -0.341804 17.0876 -0.31977 17.1642 -0.286089 17.2387L 0.609668 16.7941C 0.618423 16.8118 0.623057 16.8256 0.624848 16.8314C 0.625691 16.8341 0.625956 16.8352 0.625527 16.8336C 0.624987 16.8316 0.624328 16.8289 0.622658 16.8222L -0.347908 17.063ZM -0.334917 17.0911C -0.343673 17.0735 -0.348307 17.0596 -0.350098 17.0539C -0.350941 17.0511 -0.351206 17.05 -0.350777 17.0516C -0.350237 17.0537 -0.349577 17.0563 -0.347908 17.063L 0.622658 16.8222C 0.616554 16.7976 0.59452 16.7211 0.560839 16.6466L -0.334917 17.0911ZM 1.97968 12.5595C 0.139074 13.1865 -0.877679 15.1249 -0.369631 16.9996L 0.595553 16.7381C 0.223962 15.3669 0.966487 13.9611 2.30215 13.5061L 1.97968 12.5595ZM 5.38381 11.4131L 1.98134 12.5589L 2.30049 13.5066L 5.70296 12.3608L 5.38381 11.4131ZM 3.91465 8.59302L 5.06919 12.0455L 6.01757 11.7284L 4.86303 8.27588L 3.91465 8.59302ZM 3.87914 8.48107C 3.88525 8.50567 3.90728 8.58221 3.94096 8.65672L 4.83672 8.21218C 4.84547 8.22982 4.85011 8.24365 4.8519 8.24943C 4.85274 8.25214 4.85301 8.25326 4.85258 8.25164C 4.85204 8.24959 4.85138 8.24697 4.84971 8.24024L 3.87914 8.48107ZM 3.89213 8.50914C 3.88338 8.4915 3.87874 8.47766 3.87695 8.47189C 3.87611 8.46917 3.87584 8.46805 3.87627 8.46968C 3.87681 8.47172 3.87747 8.47435 3.87914 8.48107L 4.84971 8.24024C 4.84361 8.21564 4.82157 8.1391 4.78789 8.06459L 3.89213 8.50914ZM 6.18233 3.95291C 4.33888 4.58086 3.32263 6.54824 3.85929 8.42437L 4.82073 8.14936C 4.42893 6.77965 5.17171 5.35359 6.50477 4.8995L 6.18233 3.95291ZM 7.32085 3.75409C 6.92186 3.75734 6.53059 3.84524 6.19569 3.94857L 6.49141 4.90385C 6.79177 4.81053 7.03575 4.75084 7.32085 4.75409L 7.32085 3.75409ZM 10.799 6.2308C 10.2898 4.75041 8.90276 3.75409 7.32085 3.75409L 7.32085 4.75409C 8.47551 4.75409 9.48296 5.47908 9.8534 6.55606L 10.799 6.2308ZM 11.9665 9.72523L 10.8005 6.235L 9.85198 6.55187L 11.018 10.0421L 11.9665 9.72523ZM 18.0235 7.15664L 11.3327 9.40981L 11.6518 10.3575L 18.3426 8.10435L 18.0235 7.15664ZM 16.5469 4.31434L 17.7088 7.78907L 18.6572 7.47192L 17.4952 3.99719L 16.5469 4.31434ZM 16.4975 4.16523L 16.5463 4.31282L 17.4957 3.99871L 17.4469 3.85113L 16.4975 4.16523ZM 18.8145 -0.325769C 16.9712 0.302171 15.9548 2.26953 16.4915 4.14569L 17.4529 3.87067C 17.0611 2.50098 17.804 1.0749 19.137 0.620813L 18.8145 -0.325769ZM 19.9776 -0.5C 19.597 -0.498525 19.2102 -0.439102 18.8376 -0.333016L 19.1139 0.62806C 19.4253 0.537491 19.6738 0.498525 19.9776 0.5L 19.9776 -0.5ZM 21.6194 -0.12694C 21.1181 -0.374235 20.5158 -0.497535 19.9776 -0.5L 19.9776 0.5C 20.4166 0.497535 20.7917 0.571012 21.17 0.766344L 21.6194 -0.12694ZM 23.4359 1.99111C 23.1511 1.07339 22.4961 0.299877 21.6136 -0.129834L 21.1758 0.769238C 21.8082 1.0772 22.2773 1.63156 22.4809 2.28758L 23.4359 1.99111ZM 24.5969 5.45903L 23.4326 1.98064L 22.4843 2.29805L 23.6486 5.77644L 24.5969 5.45903ZM 23.9952 5.13302L 23.9622 5.14419L 24.2832 6.09128L 24.3162 6.08011L 23.9952 5.13302ZM 24.6338 5.45981L 24.63 5.44845L 23.6813 5.76468L 23.6851 5.77603L 24.6338 5.45981ZM 27.4657 3.97695L 23.9999 5.14407L 24.319 6.09177L 27.7849 4.92466L 27.4657 3.97695ZM 28.5152 3.80478C 28.1959 3.8295 27.8475 3.86166 27.4774 3.97317L 27.7732 4.92844C 28.0383 4.84329 28.2763 4.82626 28.5924 4.80179L 28.5152 3.80478ZM 32.0075 6.2308C 31.4956 4.74257 30.1273 3.80328 28.5538 3.80328L 28.5538 4.80328C 29.7168 4.80328 30.6942 5.48693 31.0619 6.55606L 32.0075 6.2308ZM 32.0483 6.33192L 31.9994 6.20893L 31.07 6.57793L 31.1188 6.70092L 32.0483 6.33192ZM 29.6144 10.6306C 31.2124 10.1038 32.6198 8.37975 32.0653 6.38266L 31.1018 6.65018C 31.4758 7.99732 30.5377 9.27328 29.3013 9.6809L 29.6144 10.6306ZM 26.2207 11.7988C 27.8861 11.2263 28.7362 10.9337 29.1698 10.7842C 29.3868 10.7094 29.4998 10.6704 29.5585 10.6501C 29.588 10.6399 29.6043 10.6342 29.6129 10.6312C 29.6175 10.6296 29.6205 10.6286 29.6222 10.628C 29.6233 10.6276 29.6245 10.6272 29.625 10.627C 29.6256 10.6268 29.6264 10.6265 29.6267 10.6264C 29.627 10.6263 29.6276 10.6261 29.6278 10.626C 29.628 10.6259 29.6283 10.6258 29.6284 10.6258C 29.6285 10.6257 29.6287 10.6256 29.6288 10.6256C 29.629 10.6255 29.6292 10.6255 29.4578 10.1558C 29.2864 9.68605 29.2866 9.68598 29.2868 9.6859C 29.2869 9.68588 29.2871 9.68582 29.2872 9.68577C 29.2871 9.68581 29.288 9.68547 29.2878 9.68554C 29.2876 9.68561 29.2891 9.68508 29.2888 9.68519C 29.2886 9.68527 29.2903 9.68466 29.29 9.68477C 29.2899 9.68481 29.2905 9.6846 29.2903 9.68467C 29.2893 9.68502 29.2876 9.68561 29.2838 9.68693C 29.2756 9.68978 29.2604 9.69506 29.2314 9.70509C 29.1731 9.72529 29.0607 9.76411 28.844 9.83877C 28.4105 9.98816 27.5608 10.2806 25.8956 10.8531L 26.2207 11.7988ZM 26.5353 11.1762L 26.5319 11.1661L 25.5844 11.4858L 25.5878 11.4959L 26.5353 11.1762ZM 26.2027 11.8163L 26.2248 11.8087L 25.8984 10.8634L 25.8763 10.8711L 26.2027 11.8163ZM 28.7983 18.0102L 26.5136 11.185L 25.5653 11.5024L 27.85 18.3277L 28.7983 18.0102ZM 31.6911 16.4939L 28.1629 17.6956L 28.4853 18.6422L 32.0135 17.4405L 31.6911 16.4939ZM 32.8542 16.2951C 32.459 16.2979 32.0432 16.3852 31.7044 16.4896L 32.0003 17.4448C 32.2967 17.3525 32.565 17.2923 32.8542 17.2951L 32.8542 16.2951ZM 36.3068 18.6952C 35.7938 17.2323 34.4258 16.2951 32.8542 16.2951L 32.8542 17.2951C 34.0191 17.2951 34.9966 17.9808 35.3632 19.0261L 36.3068 18.6952ZM 36.3485 18.7986L 36.2995 18.6757L 35.3705 19.0456L 35.4194 19.1686L 36.3485 18.7986ZM 35.9139 21.86C 36.4791 20.9783 36.6487 19.8468 36.365 18.8471L 35.403 19.1201C 35.6077 19.8416 35.4841 20.6775 35.072 21.3203L 35.9139 21.86ZM 33.9781 22.6721C 34.1831 23.1281 34.1832 23.1281 34.1833 23.1281C 34.1833 23.1281 34.1834 23.128 34.1834 23.128C 34.1835 23.128 34.1837 23.1279 34.1838 23.1278C 34.1841 23.1277 34.1845 23.1275 34.185 23.1273C 34.1857 23.127 34.1871 23.1263 34.1885 23.1257C 34.1911 23.1245 34.1954 23.1225 34.2004 23.1202C 34.2097 23.116 34.2246 23.109 34.2423 23.1006C 34.2761 23.0846 34.328 23.0595 34.3886 23.0289C 34.5065 22.9694 34.6775 22.8785 34.8554 22.772C 35.1897 22.5713 35.6607 22.2508 35.9126 21.862L 35.0733 21.3183C 34.9588 21.4951 34.6723 21.7156 34.3408 21.9145C 34.1858 22.0078 34.0468 22.0813 33.9379 22.1363C 33.8851 22.163 33.8444 22.1826 33.814 22.197C 33.7995 22.2039 33.7894 22.2086 33.7817 22.2121C 33.7782 22.2137 33.776 22.2147 33.7742 22.2156C 33.7735 22.2159 33.7732 22.216 33.7728 22.2162C 33.7727 22.2162 33.7727 22.2163 33.7727 22.2162C 33.7727 22.2162 33.7728 22.2162 33.7728 22.2162C 33.7729 22.2162 33.7729 22.2162 33.7729 22.2161C 33.773 22.2161 33.773 22.2161 33.9781 22.6721ZM 30.427 24.4236L 34.1408 23.1449L 33.8153 22.1994L 30.1014 23.478L 30.427 24.4236ZM 30.3487 24.4436L 30.353 24.4429L 30.1754 23.4588L 30.171 23.4596L 30.3487 24.4436ZM 31.9355 27.3822L 30.734 23.7929L 29.7857 24.1103L 30.9872 27.6997L 31.9355 27.3822ZM 31.9603 27.457L 31.9358 27.3832L 30.9869 27.6987L 31.0114 27.7725L 31.9603 27.457ZM 29.6434 31.9979C 31.4856 31.3704 32.5294 29.4029 31.9658 27.4745L 31.006 27.755C 31.4197 29.1708 30.6554 30.5968 29.321 31.0513L 29.6434 31.9979ZM 28.5293 32.2213C 28.9 32.2185 29.339 32.1245 29.6755 31.9857L 29.2889 31.0635C 29.039 31.1706 28.7939 31.2241 28.5293 31.2213L 28.5293 32.2213ZM 16.1714 22.3114L 13.8984 15.5076L 12.9499 15.8245L 15.223 22.6283L 16.1714 22.3114ZM 22.2227 19.719L 15.536 21.9965L 15.8584 22.9431L 22.5452 20.6656L 22.2227 19.719ZM 19.629 13.5308L 21.9098 20.3508L 22.8581 20.0337L 20.5774 13.2136L 19.629 13.5308ZM 13.5918 16.1368L 20.2656 13.8451L 19.9408 12.8993L 13.267 15.191L 13.5918 16.1368ZM 13.6126 16.1292L 13.6178 16.1271L 13.2409 15.2008L 13.2356 15.203L 13.6126 16.1292Z"/>
</defs>
</svg>
