<svg width="270" height="270" viewBox="0 0 270 270" version="1.1" xmlns="http://www.w3.org/2000/svg" xmlns:xlink="http://www.w3.org/1999/xlink" xmlns:figma="http://www.figma.com/figma/ns">
<title>sup-icn</title>
<desc>Created using Figma</desc>
<g id="Canvas" transform="translate(931 -2592)" figma:type="canvas">
<g id="sup-icn" style="mix-blend-mode:normal;" figma:type="frame">
<g id="bg" style="mix-blend-mode:normal;" figma:type="rounded-rectangle">
<use xlink:href="#path0_fill" transform="translate(-931 2592)" fill="#1D67CC" style="mix-blend-mode:normal;"/>
</g>
<g id="icon" style="mix-blend-mode:normal;" figma:type="vector">
<use xlink:href="#path1_fill" transform="translate(-836 2687)" fill="#FFFFFF" style="mix-blend-mode:normal;"/>
</g>
</g>
</g>
<defs>
<path id="path0_fill" d="M 0 4C 0 1.79086 1.79086 0 4 0L 266 0C 268.209 0 270 1.79086 270 4L 270 266C 270 268.209 268.209 270 266 270L 4 270C 1.79086 270 0 268.209 0 266L 0 4Z"/>
<path id="path1_fill" fill-rule="evenodd" d="M 36.8 0C 34.149 0 32 2.14902 32 4.8L 32 10.2752C 32 11.9864 30.8638 13.4689 29.2831 14.1242C 27.7016 14.7799 25.849 14.5355 24.6385 13.3249L 20.7667 9.45312C 18.8922 7.57852 15.853 7.57852 13.9785 9.45312L 9.45298 13.9785C 7.57847 15.8531 7.57847 18.8922 9.45298 20.7668L 13.3249 24.6387C 14.5354 25.8492 14.7798 27.7017 14.1242 29.2831C 13.4688 30.8638 11.9864 32 10.2752 32L 4.8 32C 2.14902 32 0 34.149 0 36.8L 0 43.2C 0 45.851 2.14902 48 4.8 48L 10.2752 48C 11.9864 48 13.4688 49.1362 14.1242 50.7169C 14.7798 52.2983 14.5354 54.1508 13.3249 55.3613L 9.45298 59.2332C 7.57847 61.1078 7.57847 64.1471 9.45298 66.0215L 13.9785 70.5471C 15.853 72.4215 18.8922 72.4215 20.7667 70.5471L 24.6385 66.6752C 25.8491 65.4647 27.7017 65.2203 29.2831 65.8759C 30.8639 66.5312 32 68.0135 32 69.7247L 32 75.2C 32 77.851 34.149 80 36.8 80L 43.2 80C 45.851 80 48 77.851 48 75.2L 48 69.725C 48 68.0137 49.1363 66.5312 50.7171 65.8757C 52.2983 65.2199 54.1507 65.4644 55.3612 66.6749L 59.2333 70.5471C 61.1078 72.4217 64.147 72.4217 66.0215 70.5471L 70.547 66.0217C 72.4215 64.1471 72.4215 61.1078 70.547 59.2334L 66.6749 55.361C 65.4645 54.1506 65.22 52.2982 65.8757 50.7169C 66.5312 49.1362 68.0137 48 69.7249 48L 75.2 48C 77.851 48 80 45.851 80 43.2L 80 36.8C 80 34.149 77.851 32 75.2 32L 69.7251 32C 68.0137 32 66.5312 30.8637 65.8758 29.2829C 65.2201 27.7014 65.4646 25.8488 66.6752 24.6383L 70.547 20.7666C 72.4215 18.8922 72.4215 15.8529 70.547 13.9785L 66.0215 9.45293C 64.147 7.57852 61.1078 7.57852 59.2333 9.45293L 55.3612 13.325C 54.1507 14.5354 52.2983 14.7799 50.7171 14.1243C 49.1363 13.4688 48 11.9863 48 10.275L 48 4.8C 48 2.14902 45.851 0 43.2 0L 36.8 0ZM 40 56C 48.8366 56 56 48.8365 56 40C 56 31.1635 48.8366 24 40 24C 31.1634 24 24 31.1635 24 40C 24 48.8365 31.1634 56 40 56Z"/>
</defs>
</svg>
