<svg width="100" height="100" viewBox="0 0 100 100" version="1.1" xmlns="http://www.w3.org/2000/svg" xmlns:xlink="http://www.w3.org/1999/xlink" xmlns:figma="http://www.figma.com/figma/ns">
<title>team-icon</title>
<desc>Created using Figma</desc>
<g id="Canvas" transform="translate(-6433 -3123)" figma:type="canvas">
<g id="team-icon" style="mix-blend-mode:normal;" figma:type="frame">
<g id="bg" style="mix-blend-mode:normal;" figma:type="rounded-rectangle">
<use xlink:href="#path0_fill" transform="translate(6433 3123)" fill="#FFFFFF" style="mix-blend-mode:normal;"/>
<mask id="mask0_outline_ins">
<use xlink:href="#path0_fill" fill="white" transform="translate(6433 3123)"/>
</mask>
<g mask="url(#mask0_outline_ins)">
<use xlink:href="#path1_stroke_2x" transform="translate(6433 3123)" fill="#000000" fill-opacity="0.1" style="mix-blend-mode:normal;"/>
</g>
</g>
<g id="Ellipse 6" style="mix-blend-mode:normal;" figma:type="ellipse">
<use xlink:href="#path2_fill" transform="translate(6473 3155.5)" fill="#FFFFFF" style="mix-blend-mode:normal;"/>
<use xlink:href="#path3_stroke" transform="translate(6473 3155.5)" fill="#2F80ED" style="mix-blend-mode:normal;"/>
</g>
<g id="Ellipse 6" style="mix-blend-mode:normal;" figma:type="vector">
<use xlink:href="#path4_stroke" transform="translate(6495 3161)" fill="#E5E5E5" style="mix-blend-mode:normal;"/>
</g>
<g id="Ellipse 6" style="mix-blend-mode:normal;" figma:type="vector">
<use xlink:href="#path5_stroke" transform="matrix(1 0 0 -1 6495 3187)" fill="#E5E5E5" style="mix-blend-mode:normal;"/>
</g>
<g id="Ellipse 6" style="mix-blend-mode:normal;" figma:type="vector">
<use xlink:href="#path4_stroke" transform="matrix(-1 0 0 1 6471 3161)" fill="#E5E5E5" style="mix-blend-mode:normal;"/>
</g>
<g id="Ellipse 6" style="mix-blend-mode:normal;" figma:type="vector">
<use xlink:href="#path5_stroke" transform="matrix(-1 0 0 -1 6471 3187)" fill="#E5E5E5" style="mix-blend-mode:normal;"/>
</g>
<g id="Ellipse 6" style="mix-blend-mode:normal;" figma:type="vector">
<use xlink:href="#path6_fill" transform="matrix(1 0 0 -1 6468 3190.5)" fill="#E5E5E5" style="mix-blend-mode:normal;"/>
<use xlink:href="#path7_stroke" transform="matrix(1 0 0 -1 6468 3190.5)" fill="#2F80ED" style="mix-blend-mode:normal;"/>
</g>
</g>
</g>
<defs>
<path id="path0_fill" d="M 0 6C 0 2.68629 2.68629 0 6 0L 94 0C 97.3137 0 100 2.68629 100 6L 100 94C 100 97.3137 97.3137 100 94 100L 6 100C 2.68629 100 0 97.3137 0 94L 0 6Z"/>
<path id="path1_stroke_2x" d="M 6 0.5L 94 0.5L 94 -0.5L 6 -0.5L 6 0.5ZM 99.5 6L 99.5 94L 100.5 94L 100.5 6L 99.5 6ZM 94 99.5L 6 99.5L 6 100.5L 94 100.5L 94 99.5ZM 0.5 94L 0.5 6L -0.5 6L -0.5 94L 0.5 94ZM 6 -0.5C 2.41015 -0.5 -0.5 2.41015 -0.5 6L 0.5 6C 0.5 2.96243 2.96243 0.5 6 0.5L 6 -0.5ZM 94 0.5C 97.0376 0.5 99.5 2.96243 99.5 6L 100.5 6C 100.5 2.41015 97.5899 -0.5 94 -0.5L 94 0.5ZM 99.5 94C 99.5 97.0376 97.0376 99.5 94 99.5L 94 100.5C 97.5899 100.5 100.5 97.5899 100.5 94L 99.5 94ZM 6 99.5C 2.96243 99.5 0.5 97.0376 0.5 94L -0.5 94C -0.5 97.5899 2.41015 100.5 6 100.5L 6 99.5Z"/>
<path id="path2_fill" d="M 20 10C 20 15.5228 15.5228 20 10 20C 4.47715 20 0 15.5228 0 10C 0 4.47715 4.47715 0 10 0C 15.5228 0 20 4.47715 20 10Z"/>
<path id="path3_stroke" d="M 19 10C 19 14.9706 14.9706 19 10 19L 10 21C 16.0751 21 21 16.0751 21 10L 19 10ZM 10 19C 5.02944 19 1 14.9706 1 10L -1 10C -1 16.0751 3.92487 21 10 21L 10 19ZM 1 10C 1 5.02944 5.02944 1 10 1L 10 -1C 3.92487 -1 -1 3.92487 -1 10L 1 10ZM 10 1C 14.9706 1 19 5.02944 19 10L 21 10C 21 3.92487 16.0751 -1 10 -1L 10 1Z"/>
<path id="path4_stroke" d="M 6.33333 7.42857C 6.33333 10.9912 3.48568 13.8571 0 13.8571L 0 15.8571C 4.6145 15.8571 8.33333 12.0713 8.33333 7.42857L 6.33333 7.42857ZM 0 1C 3.48568 1 6.33333 3.86597 6.33333 7.42857L 8.33333 7.42857C 8.33333 2.7858 4.6145 -1 0 -1L 0 1Z"/>
<path id="path5_stroke" d="M 11 0L 12 0L 12 -1L 11 -1L 11 0ZM 10 0C 10 5.61395 5.51072 10.1429 0 10.1429L 0 12.1429C 6.63954 12.1429 12 6.69411 12 0L 10 0ZM 11 -1L 5.5 -1L 5.5 1L 11 1L 11 -1Z"/>
<path id="path6_fill" d="M 15 15C 23.2843 15 30 8.28427 30 0L 0 0C 0 8.28427 6.71573 15 15 15Z"/>
<path id="path7_stroke" d="M 30 0L 31 0L 31 -1L 30 -1L 30 0ZM 0 0L 0 -1L -1 -1L -1 0L 0 0ZM 29 0C 29 7.73199 22.732 14 15 14L 15 16C 23.8366 16 31 8.83656 31 0L 29 0ZM 15 14C 7.26801 14 1 7.73199 1 0L -1 0C -1 8.83656 6.16344 16 15 16L 15 14ZM 30 -1L 0 -1L 0 1L 30 1L 30 -1Z"/>
</defs>
</svg>
