<svg width="35" height="28" viewBox="0 0 35 28" version="1.1" xmlns="http://www.w3.org/2000/svg" xmlns:xlink="http://www.w3.org/1999/xlink" xmlns:figma="http://www.figma.com/figma/ns">
<title>tw</title>
<desc>Created using Figma</desc>
<g id="Canvas" transform="translate(-8126 -1380)" figma:type="canvas">
<g id="tw" style="mix-blend-mode:normal;" figma:type="vector">
<use xlink:href="#path0_fill" transform="translate(8126 1380)" fill="#2F80ED" style="mix-blend-mode:normal;"/>
</g>
</g>
<defs>
<path id="path0_fill" d="M 34.4706 3.31284C 33.2019 3.87502 31.8405 4.25628 30.4102 4.42649C 31.8707 3.55194 32.9886 2.16478 33.5185 0.516947C 32.1485 1.32684 30.6364 1.91492 29.0252 2.23372C 27.7349 0.857316 25.8997 0 23.8641 0C 19.9589 0 16.7925 3.1664 16.7925 7.06946C 16.7925 7.62302 16.855 8.16368 16.9757 8.68068C 11.0995 8.38554 5.88901 5.57027 2.40168 1.29237C 1.79208 2.33493 1.44529 3.54974 1.44529 4.8465C 1.44529 7.29994 2.69462 9.46472 4.59017 10.7312C 3.43129 10.6925 2.34135 10.3737 1.38716 9.84378L 1.38716 9.9321C 1.38716 13.357 3.82551 16.2153 7.05865 16.8659C 6.46628 17.0253 5.84164 17.1136 5.19543 17.1136C 4.73881 17.1136 4.29722 17.0684 3.86426 16.9822C 4.76461 19.7932 7.3753 21.8373 10.4685 21.8933C 8.04951 23.7889 4.99942 24.9154 1.68658 24.9154C 1.11579 24.9154 0.553558 24.881 0 24.8185C 3.12979 26.8282 6.84546 28 10.839 28C 23.847 28 30.9574 17.2256 30.9574 7.88155L 30.9337 6.96611C 32.323 5.97519 33.5249 4.73019 34.4706 3.31284Z"/>
</defs>
</svg>
