<svg width="100" height="100" viewBox="0 0 100 100" version="1.1" xmlns="http://www.w3.org/2000/svg" xmlns:xlink="http://www.w3.org/1999/xlink" xmlns:figma="http://www.figma.com/figma/ns">
<title>vacation-icon</title>
<desc>Created using Figma</desc>
<g id="Canvas" transform="translate(-5863 -2993)" figma:type="canvas">
<g id="vacation-icon" style="mix-blend-mode:normal;" figma:type="frame">
<g id="Rectangle 2" style="mix-blend-mode:normal;" figma:type="rounded-rectangle">
<use xlink:href="#path0_fill" transform="translate(5863 2993)" fill="#FFFFFF" style="mix-blend-mode:normal;"/>
<mask id="mask0_outline_ins">
<use xlink:href="#path0_fill" fill="white" transform="translate(5863 2993)"/>
</mask>
<g mask="url(#mask0_outline_ins)">
<use xlink:href="#path1_stroke_2x" transform="translate(5863 2993)" fill="#000000" fill-opacity="0.1" style="mix-blend-mode:normal;"/>
</g>
</g>
<g id="Ellipse 2" style="mix-blend-mode:normal;" figma:type="ellipse">
<use xlink:href="#path2_fill" transform="translate(5903 3017.5)" fill="#FFFFFF" style="mix-blend-mode:normal;"/>
<mask id="mask1_outline_out">
<rect id="mask1_outline_inv" fill="white" x="-2" y="-2" width="24" height="24" transform="translate(5903 3017.5)"/>
<use xlink:href="#path2_fill" fill="black" transform="translate(5903 3017.5)"/>
</mask>
<g mask="url(#mask1_outline_out)">
<use xlink:href="#path3_stroke_2x" transform="translate(5903 3017.5)" fill="#2F80ED" style="mix-blend-mode:normal;"/>
</g>
</g>
<g id="Rectangle 6" style="mix-blend-mode:normal;" figma:type="rounded-rectangle">
<use xlink:href="#path4_fill" transform="translate(5883 3027.5)" fill="#E5E5E5" style="mix-blend-mode:normal;"/>
<mask id="mask2_outline_out">
<rect id="mask2_outline_inv" fill="white" x="-2" y="-2" width="64" height="44" transform="translate(5883 3027.5)"/>
<use xlink:href="#path4_fill" fill="black" transform="translate(5883 3027.5)"/>
</mask>
<g mask="url(#mask2_outline_out)">
<use xlink:href="#path5_stroke_2x" transform="translate(5883 3027.5)" fill="#2F80ED" style="mix-blend-mode:normal;"/>
</g>
</g>
<g id="Rectangle 4" style="mix-blend-mode:normal;" figma:type="rounded-rectangle">
<use xlink:href="#path6_fill" transform="translate(5891 3027.5)" fill="#FFFFFF" style="mix-blend-mode:normal;"/>
<mask id="mask3_outline_out">
<rect id="mask3_outline_inv" fill="white" x="-2" y="-2" width="12" height="44" transform="translate(5891 3027.5)"/>
<use xlink:href="#path6_fill" fill="black" transform="translate(5891 3027.5)"/>
</mask>
<g mask="url(#mask3_outline_out)">
<use xlink:href="#path7_stroke_2x" transform="translate(5891 3027.5)" fill="#2F80ED" style="mix-blend-mode:normal;"/>
</g>
</g>
<g id="Rectangle 4" style="mix-blend-mode:normal;" figma:type="rounded-rectangle">
<use xlink:href="#path6_fill" transform="translate(5927 3027.5)" fill="#FFFFFF" style="mix-blend-mode:normal;"/>
<mask id="mask4_outline_out">
<rect id="mask4_outline_inv" fill="white" x="-2" y="-2" width="12" height="44" transform="translate(5927 3027.5)"/>
<use xlink:href="#path6_fill" fill="black" transform="translate(5927 3027.5)"/>
</mask>
<g mask="url(#mask4_outline_out)">
<use xlink:href="#path7_stroke_2x" transform="translate(5927 3027.5)" fill="#2F80ED" style="mix-blend-mode:normal;"/>
</g>
</g>
</g>
</g>
<defs>
<path id="path0_fill" d="M 0 6C 0 2.68629 2.68629 0 6 0L 94 0C 97.3137 0 100 2.68629 100 6L 100 94C 100 97.3137 97.3137 100 94 100L 6 100C 2.68629 100 0 97.3137 0 94L 0 6Z"/>
<path id="path1_stroke_2x" d="M 6 0.5L 94 0.5L 94 -0.5L 6 -0.5L 6 0.5ZM 99.5 6L 99.5 94L 100.5 94L 100.5 6L 99.5 6ZM 94 99.5L 6 99.5L 6 100.5L 94 100.5L 94 99.5ZM 0.5 94L 0.5 6L -0.5 6L -0.5 94L 0.5 94ZM 6 -0.5C 2.41015 -0.5 -0.5 2.41015 -0.5 6L 0.5 6C 0.5 2.96243 2.96243 0.5 6 0.5L 6 -0.5ZM 94 0.5C 97.0376 0.5 99.5 2.96243 99.5 6L 100.5 6C 100.5 2.41015 97.5899 -0.5 94 -0.5L 94 0.5ZM 99.5 94C 99.5 97.0376 97.0376 99.5 94 99.5L 94 100.5C 97.5899 100.5 100.5 97.5899 100.5 94L 99.5 94ZM 6 99.5C 2.96243 99.5 0.5 97.0376 0.5 94L -0.5 94C -0.5 97.5899 2.41015 100.5 6 100.5L 6 99.5Z"/>
<path id="path2_fill" d="M 20 10C 20 15.5228 15.5228 20 10 20C 4.47715 20 0 15.5228 0 10C 0 4.47715 4.47715 0 10 0C 15.5228 0 20 4.47715 20 10Z"/>
<path id="path3_stroke_2x" d="M 18 10C 18 14.4183 14.4183 18 10 18L 10 22C 16.6274 22 22 16.6274 22 10L 18 10ZM 10 18C 5.58172 18 2 14.4183 2 10L -2 10C -2 16.6274 3.37258 22 10 22L 10 18ZM 2 10C 2 5.58172 5.58172 2 10 2L 10 -2C 3.37258 -2 -2 3.37258 -2 10L 2 10ZM 10 2C 14.4183 2 18 5.58172 18 10L 22 10C 22 3.37258 16.6274 -2 10 -2L 10 2Z"/>
<path id="path4_fill" d="M 0 4C 0 1.79086 1.79086 0 4 0L 56 0C 58.2091 0 60 1.79086 60 4L 60 36C 60 38.2091 58.2091 40 56 40L 4 40C 1.79086 40 0 38.2091 0 36L 0 4Z"/>
<path id="path5_stroke_2x" d="M 4 2L 56 2L 56 -2L 4 -2L 4 2ZM 58 4L 58 36L 62 36L 62 4L 58 4ZM 56 38L 4 38L 4 42L 56 42L 56 38ZM 2 36L 2 4L -2 4L -2 36L 2 36ZM 4 -2C 0.686292 -2 -2 0.686292 -2 4L 2 4C 2 2.89543 2.89543 2 4 2L 4 -2ZM 56 2C 57.1046 2 58 2.89543 58 4L 62 4C 62 0.686292 59.3137 -2 56 -2L 56 2ZM 58 36C 58 37.1046 57.1046 38 56 38L 56 42C 59.3137 42 62 39.3137 62 36L 58 36ZM 4 38C 2.89543 38 2 37.1046 2 36L -2 36C -2 39.3137 0.686292 42 4 42L 4 38Z"/>
<path id="path6_fill" d="M 0 0L 8 0L 8 40L 0 40L 0 0Z"/>
<path id="path7_stroke_2x" d="M 0 0L 0 -2L -2 -2L -2 0L 0 0ZM 8 0L 10 0L 10 -2L 8 -2L 8 0ZM 8 40L 8 42L 10 42L 10 40L 8 40ZM 0 40L -2 40L -2 42L 0 42L 0 40ZM 0 2L 8 2L 8 -2L 0 -2L 0 2ZM 6 0L 6 40L 10 40L 10 0L 6 0ZM 8 38L 0 38L 0 42L 8 42L 8 38ZM 2 40L 2 0L -2 0L -2 40L 2 40Z"/>
</defs>
</svg>
