<svg width="336" height="80" viewBox="0 0 336 80" version="1.1" xmlns="http://www.w3.org/2000/svg" xmlns:xlink="http://www.w3.org/1999/xlink" xmlns:figma="http://www.figma.com/figma/ns">
<title>walmart</title>
<desc>Created using Figma</desc>
<g id="Canvas" transform="matrix(2 0 0 2 1150 -7236)" figma:type="canvas">
<g id="walmart" style="mix-blend-mode:normal;" figma:type="vector">
<use xlink:href="#path0_fill" transform="translate(-575 3618)" fill="#BDBDBD" style="mix-blend-mode:normal;"/>
<use xlink:href="#path1_fill" transform="translate(-575 3618)" fill="#BDBDBD" style="mix-blend-mode:normal;"/>
<use xlink:href="#path2_fill" transform="translate(-575 3618)" fill="#BDBDBD" style="mix-blend-mode:normal;"/>
<use xlink:href="#path3_fill" transform="translate(-575 3618)" fill="#BDBDBD" style="mix-blend-mode:normal;"/>
<use xlink:href="#path4_fill" transform="translate(-575 3618)" fill="#BDBDBD" style="mix-blend-mode:normal;"/>
<use xlink:href="#path5_fill" transform="translate(-575 3618)" fill="#BDBDBD" style="mix-blend-mode:normal;"/>
<use xlink:href="#path6_fill" transform="translate(-575 3618)" fill="#BDBDBD" style="mix-blend-mode:normal;"/>
<use xlink:href="#path7_fill" transform="translate(-575 3618)" fill="#BDBDBD" style="mix-blend-mode:normal;"/>
<use xlink:href="#path8_fill" transform="translate(-575 3618)" fill="#BDBDBD" style="mix-blend-mode:normal;"/>
<use xlink:href="#path9_fill" transform="translate(-575 3618)" fill="#BDBDBD" style="mix-blend-mode:normal;"/>
<use xlink:href="#path10_fill" transform="translate(-575 3618)" fill="#BDBDBD" style="mix-blend-mode:normal;"/>
<use xlink:href="#path11_fill" transform="translate(-575 3618)" fill="#BDBDBD" style="mix-blend-mode:normal;"/>
<use xlink:href="#path12_fill" transform="translate(-575 3618)" fill="#BDBDBD" style="mix-blend-mode:normal;"/>
<use xlink:href="#path13_fill" transform="translate(-575 3618)" fill="#BDBDBD" style="mix-blend-mode:normal;"/>
<use xlink:href="#path14_fill" transform="translate(-575 3618)" fill="#BDBDBD" style="mix-blend-mode:normal;"/>
</g>
</g>
<defs>
<path id="path0_fill" d="M 147.794 0C 146.275 0 145.072 0.859599 145.072 1.89112L 145.988 12.3496C 146.103 12.9799 146.848 13.467 147.794 13.467C 148.739 13.467 149.513 12.9799 149.599 12.3496L 150.516 1.89112C 150.544 0.859599 149.312 0 147.794 0Z"/>
<path id="path1_fill" d="M 25.043 8.19484L 22.9513 18.2235C 22.8393 18.7946 22.7306 19.3416 22.6252 19.872L 22.6222 19.8869C 22.1894 22.0648 21.812 23.9639 21.49 26.1031L 21.4327 26.1031C 21.1095 23.6256 20.6851 21.5277 20.1595 18.9294L 20.0573 18.4241L 17.8797 8.19484L 12.7221 8.19484L 10.4012 18.1662C 10.2233 18.986 10.0475 19.762 9.87825 20.5088L 9.87716 20.5136C 9.41994 22.5316 9.01099 24.3365 8.73925 26.2178L 8.59599 26.2178C 8.19483 23.7822 7.65041 20.7163 7.07735 17.7937C 7.07735 17.7937 5.70201 10.659 5.21488 8.19484L 0 8.19484C 0 8.19484 4.12608 25.0716 4.78509 27.8223C 5.55874 31.0315 6.93408 32.2063 10.9169 31.404L 13.4957 20.9455C 14.1547 18.3381 14.5845 16.5043 15.0143 13.8395L 15.1003 13.8395C 15.3487 16.1504 15.705 17.8363 16.1502 19.9437L 16.1518 19.9514C 16.2195 20.2718 16.2893 20.6019 16.361 20.9455C 16.361 20.9455 17.4212 25.702 17.937 28.1948C 18.4814 30.6877 19.9713 32.2636 23.8682 31.404L 30 8.19484L 25.043 8.19484Z"/>
<path id="path2_fill" fill-rule="evenodd" d="M 98.2521 21.0029C 98.2521 17.0487 96.5616 13.5817 90.8596 13.5817C 87.9369 13.5817 85.616 14.4126 84.3266 15.1289L 85.2435 18.3094C 86.3897 17.5645 88.2521 16.9627 90 16.9627C 92.8939 16.9627 93.3811 18.596 93.3811 19.6561L 93.3811 19.914C 87.0773 19.914 83.0945 22.0917 83.0945 26.5329C 83.0945 29.255 85.1289 31.8051 88.6533 31.8051C 90.8309 31.8051 92.6361 30.9456 93.7249 29.5415L 93.8395 29.5415C 93.8395 29.5415 94.5559 32.5501 98.5387 31.404C 98.3381 30.1433 98.2521 28.8252 98.2521 27.192L 98.2521 21.0029ZM 93.553 25.1862C 93.553 25.5014 93.5243 25.8453 93.4384 26.1318C 93.0659 27.3352 91.8338 28.3668 90.2579 28.3668C 88.9398 28.3668 87.9083 27.6218 87.9083 26.0745C 87.9083 23.6676 90.5444 23.0086 93.553 23.0373L 93.553 25.1862Z"/>
<path id="path3_fill" fill-rule="evenodd" d="M 36.6476 13.5817C 42.3496 13.5817 44.0401 17.0487 44.0401 21.0029L 44.0401 27.192C 44.0401 28.8252 44.1261 30.1433 44.3266 31.404C 40.3438 32.5501 39.6275 29.5415 39.6275 29.5415L 39.5129 29.5415C 38.4241 30.9456 36.6189 31.8051 34.4412 31.8051C 30.9169 31.8051 28.8825 29.255 28.8825 26.5329C 28.8825 22.0917 32.8653 19.914 39.169 19.914L 39.169 19.6561C 39.169 18.596 38.6819 16.9627 35.788 16.9627C 34.0401 16.9627 32.1777 17.5645 31.0315 18.3094L 30.1146 15.1289C 31.404 14.4126 33.7249 13.5817 36.6476 13.5817ZM 39.2264 26.1318C 39.3123 25.8453 39.341 25.5014 39.341 25.1862L 39.341 23.0373C 36.3324 23.0086 33.6963 23.6676 33.6963 26.0745C 33.6963 27.6218 34.7278 28.3668 36.0458 28.3668C 37.6218 28.3668 38.8538 27.3352 39.2264 26.1318Z"/>
<path id="path4_fill" d="M 47.192 31.404L 51.8911 31.404L 51.8911 26.4756L 51.8911 8.19484L 47.192 8.19484L 47.192 31.404Z"/>
<path id="path5_fill" d="M 113.582 8.19484L 118.223 8.19484L 118.252 8.19484L 118.252 13.6963L 122.35 13.6963L 122.35 18.1375L 118.252 18.1375L 118.252 24.6418C 118.252 26.7622 118.797 27.7937 120.401 27.7937C 121.146 27.7937 121.691 27.7077 122.178 27.5931L 122.235 31.2894C 121.576 31.5473 120.229 31.8051 118.825 31.8051C 117.192 31.8051 115.817 31.2321 114.986 30.3438C 114.04 29.341 113.582 27.6791 113.582 25.3295L 113.582 8.19484Z"/>
<path id="path6_fill" d="M 105.788 17.2493L 105.645 17.2493L 105.645 13.9828L 101.375 13.9828L 101.375 31.4327L 106.246 31.4327L 106.246 22.4642C 106.246 21.9771 106.275 21.5759 106.361 21.1748C 106.733 19.3123 108.138 18.1089 110.201 18.1089C 110.748 18.1089 111.138 18.1611 111.546 18.2157L 111.605 18.2235L 111.605 13.6963C 111.232 13.6103 110.974 13.5817 110.544 13.5817C 108.739 13.5817 106.676 14.7564 105.788 17.2493Z"/>
<path id="path7_fill" d="M 71.9484 14.5272C 72.9226 13.9255 74.0115 13.5817 75.3868 13.5817C 78.4814 13.5817 81.2321 15.7307 81.2321 21.1461L 81.2321 31.404L 76.5043 31.404L 76.5043 21.8625C 76.5043 19.1117 75.5874 17.5358 73.6389 17.5358C 72.2349 17.5358 71.2034 18.4814 70.8023 19.6561C 70.659 20.0573 70.6017 20.6017 70.6017 21.0602L 70.6017 31.404L 65.8739 31.404L 65.8739 21.4613C 65.8739 19.1117 64.9857 17.5072 63.0659 17.5072C 61.5473 17.5072 60.6017 18.7106 60.2006 19.7421C 60.0286 20.2006 59.9713 20.6877 59.9713 21.1748L 59.9713 31.404L 55.2436 31.404L 55.2436 13.9542L 59.7421 13.9542L 59.7421 16.3324L 59.7994 16.3324C 60.6017 15.0716 61.9197 13.5817 64.871 13.5817C 67.1633 13.5817 68.9398 14.8138 69.6848 16.7049L 69.7421 16.7049C 70.3725 15.7593 71.1174 15.043 71.9484 14.5272Z"/>
<path id="path8_fill" d="M 130.458 10C 131.232 8.68194 132.579 8.05158 133.467 8.56733L 142.034 14.6132C 142.521 15.0143 142.55 15.9312 142.092 16.7335C 141.633 17.5358 140.831 17.9656 140.229 17.7364L 130.716 13.2951C 129.828 12.7794 129.685 11.318 130.458 10Z"/>
<path id="path9_fill" d="M 162.12 8.56733L 153.524 14.6132C 153.037 15.0143 153.009 15.9312 153.467 16.7335C 153.925 17.5358 154.756 17.9656 155.329 17.7364L 164.842 13.2951C 165.731 12.7794 165.874 11.318 165.1 10C 164.355 8.68194 163.009 8.05158 162.12 8.56733Z"/>
<path id="path10_fill" d="M 145.988 27.6504C 146.103 27.02 146.848 26.5329 147.794 26.5329C 148.739 26.5329 149.513 27.02 149.599 27.6504L 150.516 38.1089C 150.516 39.1404 149.312 40 147.794 40C 146.275 40 145.072 39.1404 145.072 38.1089L 145.988 27.6504Z"/>
<path id="path11_fill" d="M 164.842 26.6762L 155.329 22.2349C 154.728 22.0057 153.925 22.4355 153.467 23.2378C 153.009 24.0401 153.037 24.957 153.524 25.3582L 162.12 31.3753C 163.009 31.8911 164.355 31.2607 165.129 29.9427C 165.874 28.6819 165.759 27.192 164.842 26.6762Z"/>
<path id="path12_fill" d="M 140.286 22.2636C 140.86 22.0344 141.691 22.4642 142.149 23.2665C 142.607 24.0688 142.579 24.9857 142.12 25.4441L 133.524 31.4613C 132.607 31.9771 131.289 31.3467 130.516 30.0286C 129.742 28.7106 129.885 27.2206 130.774 26.7049L 140.286 22.2636Z"/>
<path id="path13_fill" fill-rule="evenodd" d="M 167.221 31.1748C 167.221 31.2607 167.135 31.3467 167.049 31.3753C 167.135 31.404 167.163 31.4613 167.192 31.5759C 167.201 31.6141 167.208 31.646 167.213 31.6725C 167.224 31.7256 167.23 31.7574 167.249 31.7765L 167.049 31.7765C 167.032 31.7599 167.025 31.7239 167.017 31.6798C 167.01 31.648 167.003 31.6119 166.991 31.5759C 166.963 31.49 166.934 31.4613 166.819 31.4613L 166.733 31.4613L 166.733 31.7765L 166.533 31.7765L 166.533 30.9742C 166.57 30.9742 166.608 30.9687 166.65 30.9626C 166.705 30.9546 166.767 30.9456 166.848 30.9456C 167.02 30.9456 167.077 30.9742 167.135 31.0029C 167.192 31.0315 167.221 31.0888 167.221 31.1748ZM 166.733 31.318L 166.819 31.318C 166.934 31.318 167.02 31.2894 167.02 31.2034C 167.02 31.1461 166.963 31.0888 166.848 31.0888L 166.733 31.0888L 166.733 31.318Z"/>
<path id="path14_fill" fill-rule="evenodd" d="M 166.877 30.5444C 166.418 30.5444 166.046 30.9169 166.046 31.3467C 166.046 31.8052 166.418 32.149 166.877 32.149C 167.335 32.149 167.708 31.8052 167.708 31.3467C 167.708 30.9169 167.335 30.5444 166.877 30.5444ZM 166.877 32.0057C 166.504 32.0057 166.246 31.7192 166.246 31.3467C 166.246 31.0029 166.504 30.6877 166.877 30.6877C 167.249 30.6877 167.507 30.9742 167.507 31.3467C 167.478 31.7192 167.221 32.0057 166.877 32.0057Z"/>
</defs>
</svg>
