<svg width="100" height="100" viewBox="0 0 100 100" version="1.1" xmlns="http://www.w3.org/2000/svg" xmlns:xlink="http://www.w3.org/1999/xlink" xmlns:figma="http://www.figma.com/figma/ns">
<title>workplace-icon</title>
<desc>Created using Figma</desc>
<g id="Canvas" transform="translate(-6433 -2863)" figma:type="canvas">
<g id="workplace-icon" style="mix-blend-mode:normal;" figma:type="frame">
<g id="Rectangle 2" style="mix-blend-mode:normal;" figma:type="rounded-rectangle">
<use xlink:href="#path0_fill" transform="translate(6433 2863)" fill="#FFFFFF" style="mix-blend-mode:normal;"/>
<mask id="mask0_outline_ins">
<use xlink:href="#path0_fill" fill="white" transform="translate(6433 2863)"/>
</mask>
<g mask="url(#mask0_outline_ins)">
<use xlink:href="#path1_stroke_2x" transform="translate(6433 2863)" fill="#000000" fill-opacity="0.1" style="mix-blend-mode:normal;"/>
</g>
</g>
<g id="Group" style="mix-blend-mode:normal;" figma:type="frame">
<g id="Ellipse 5" style="mix-blend-mode:normal;" figma:type="vector">
<mask id="mask1_outline_out">
<rect id="mask1_outline_inv" fill="white" x="-3" y="-2" width="21" height="12" transform="translate(6491.56 2898.91)"/>
<use xlink:href="#path2_fill" fill="black" transform="translate(6491.56 2898.91)"/>
</mask>
<g mask="url(#mask1_outline_out)">
<use xlink:href="#path3_stroke_2x" transform="translate(6491.56 2898.91)" fill="#2F80ED" style="mix-blend-mode:normal;"/>
</g>
</g>
<g id="Ellipse 5" style="mix-blend-mode:normal;" figma:type="vector">
<use xlink:href="#path4_fill" transform="matrix(5.80984e-17 -1 1 6.45353e-17 6479.64 2898.78)" fill="#E5E5E5" style="mix-blend-mode:normal;"/>
<mask id="mask2_outline_out">
<rect id="mask2_outline_inv" fill="white" x="-3" y="-2" width="22" height="12" transform="matrix(5.80984e-17 -1 1 6.45353e-17 6479.64 2898.78)"/>
<use xlink:href="#path4_fill" fill="black" transform="matrix(5.80984e-17 -1 1 6.45353e-17 6479.64 2898.78)"/>
</mask>
<g mask="url(#mask2_outline_out)">
<use xlink:href="#path5_stroke_2x" transform="matrix(5.80984e-17 -1 1 6.45353e-17 6479.64 2898.78)" fill="#2F80ED" style="mix-blend-mode:normal;"/>
</g>
</g>
<g id="Vector" style="mix-blend-mode:normal;" figma:type="vector">
<use xlink:href="#path6_stroke" transform="translate(6483.39 2900.26)" fill="#2F80ED" style="mix-blend-mode:normal;"/>
</g>
<g id="Ellipse 4" style="mix-blend-mode:normal;" figma:type="vector">
<use xlink:href="#path7_stroke" transform="translate(6483.39 2902.99)" fill="#2F80ED" style="mix-blend-mode:normal;"/>
</g>
<g id="Ellipse 5" style="mix-blend-mode:normal;" figma:type="vector">
<mask id="mask3_outline_out">
<rect id="mask3_outline_inv" fill="white" x="-3" y="-2" width="21" height="12" transform="matrix(-1 0 0 1 6474.02 2898.91)"/>
<use xlink:href="#path2_fill" fill="black" transform="matrix(-1 0 0 1 6474.02 2898.91)"/>
</mask>
<g mask="url(#mask3_outline_out)">
<use xlink:href="#path3_stroke_2x" transform="matrix(-1 0 0 1 6474.02 2898.91)" fill="#2F80ED" style="mix-blend-mode:normal;"/>
</g>
</g>
<g id="Ellipse 4" style="mix-blend-mode:normal;" figma:type="vector">
<use xlink:href="#path8_stroke" transform="matrix(-1 0 0 1 6483.39 2902.86)" fill="#2F80ED" style="mix-blend-mode:normal;"/>
</g>
<g id="Rectangle 7" style="mix-blend-mode:normal;" figma:type="vector">
<use xlink:href="#path9_fill" transform="translate(6469.33 2917.55)" fill="#E5E5E5" style="mix-blend-mode:normal;"/>
<mask id="mask4_outline_out">
<rect id="mask4_outline_inv" fill="white" x="-3" y="-2" width="34" height="30" transform="translate(6469.33 2917.55)"/>
<use xlink:href="#path9_fill" fill="black" transform="translate(6469.33 2917.55)"/>
</mask>
<g mask="url(#mask4_outline_out)">
<use xlink:href="#path10_stroke_2x" transform="translate(6469.33 2917.55)" fill="#2F80ED" style="mix-blend-mode:normal;"/>
</g>
</g>
<g id="Rectangle 7" style="mix-blend-mode:normal;" figma:type="vector">
<use xlink:href="#path11_fill" transform="translate(6466.52 2913.6)" fill="#FFFFFF" style="mix-blend-mode:normal;"/>
<mask id="mask5_outline_out">
<rect id="mask5_outline_inv" fill="white" x="-2" y="-2" width="38" height="12" transform="translate(6466.52 2913.6)"/>
<use xlink:href="#path11_fill" fill="black" transform="translate(6466.52 2913.6)"/>
</mask>
<g mask="url(#mask5_outline_out)">
<use xlink:href="#path12_stroke_2x" transform="translate(6466.52 2913.6)" fill="#2F80ED" style="mix-blend-mode:normal;"/>
</g>
</g>
</g>
</g>
</g>
<defs>
<path id="path0_fill" d="M 0 6C 0 2.68629 2.68629 0 6 0L 94 0C 97.3137 0 100 2.68629 100 6L 100 94C 100 97.3137 97.3137 100 94 100L 6 100C 2.68629 100 0 97.3137 0 94L 0 6Z"/>
<path id="path1_stroke_2x" d="M 6 0.5L 94 0.5L 94 -0.5L 6 -0.5L 6 0.5ZM 99.5 6L 99.5 94L 100.5 94L 100.5 6L 99.5 6ZM 94 99.5L 6 99.5L 6 100.5L 94 100.5L 94 99.5ZM 0.5 94L 0.5 6L -0.5 6L -0.5 94L 0.5 94ZM 6 -0.5C 2.41015 -0.5 -0.5 2.41015 -0.5 6L 0.5 6C 0.5 2.96243 2.96243 0.5 6 0.5L 6 -0.5ZM 94 0.5C 97.0376 0.5 99.5 2.96243 99.5 6L 100.5 6C 100.5 2.41015 97.5899 -0.5 94 -0.5L 94 0.5ZM 99.5 94C 99.5 97.0376 97.0376 99.5 94 99.5L 94 100.5C 97.5899 100.5 100.5 97.5899 100.5 94L 99.5 94ZM 6 99.5C 2.96243 99.5 0.5 97.0376 0.5 94L -0.5 94C -0.5 97.5899 2.41015 100.5 6 100.5L 6 99.5Z"/>
<path id="path2_fill" d="M 15.23 3.88584C 15.23 3.88584 11.8206 7.77168 7.61499 7.77168C 3.40935 7.77168 0 3.88584 0 3.88584C 0 3.88584 3.40935 0 7.61499 0C 11.8206 0 15.23 3.88584 15.23 3.88584Z"/>
<path id="path3_stroke_2x" d="M 15.23 3.88584L 16.7334 5.20487L 17.8906 3.88584L 16.7334 2.56681L 15.23 3.88584ZM 0 3.88584L -1.50338 2.56681L -2.66067 3.88584L -1.50338 5.20487L 0 3.88584ZM 15.23 3.88584C 13.7266 2.56681 13.727 2.56637 13.7273 2.56595C 13.7274 2.56583 13.7278 2.56543 13.728 2.56519C 13.7279 2.56537 13.7295 2.56354 13.7291 2.56391C 13.729 2.56404 13.7307 2.56209 13.7305 2.56238C 13.7311 2.56173 13.7307 2.56211 13.7297 2.56332C 13.7253 2.56817 13.7224 2.57147 13.714 2.58061C 13.6928 2.60384 13.6691 2.62945 13.6287 2.67175C 13.5383 2.76653 13.4248 2.882 13.2576 3.03967C 12.9021 3.3763 12.454 3.76961 11.8472 4.19411C 10.6194 5.05967 9.12387 5.77168 7.61499 5.77168L 7.61499 9.77168C 10.3117 9.77168 12.6237 8.54077 14.152 7.46341C 14.9233 6.91645 15.5903 6.3383 16.0055 5.94634C 16.2236 5.73971 16.4094 5.5516 16.5219 5.43387C 16.5829 5.36991 16.6365 5.31205 16.6673 5.27835C 16.685 5.25903 16.7017 5.24051 16.7105 5.23066C 16.716 5.22451 16.7217 5.21803 16.7245 5.21494C 16.7264 5.21279 16.7286 5.21026 16.7296 5.20919C 16.7303 5.20835 16.7312 5.20727 16.7316 5.20685C 16.7319 5.20649 16.7324 5.206 16.7325 5.20582C 16.7329 5.20534 16.7334 5.20487 15.23 3.88584ZM 7.61499 5.77168C 6.1061 5.77168 4.61055 5.05967 3.38273 4.19411C 2.776 3.76961 2.32787 3.3763 1.9724 3.03967C 1.80517 2.882 1.69171 2.76653 1.60132 2.67175C 1.56086 2.62945 1.53718 2.60384 1.51599 2.58061C 1.50762 2.57147 1.50466 2.56817 1.50032 2.56332C 1.49924 2.56211 1.49891 2.56173 1.49948 2.56238C 1.49923 2.56209 1.50095 2.56404 1.50083 2.56391C 1.50051 2.56354 1.50212 2.56537 1.50196 2.56519C 1.50217 2.56543 1.50253 2.56583 1.50263 2.56595C 1.503 2.56637 1.50338 2.56681 0 3.88584C -1.50338 5.20487 -1.50297 5.20534 -1.50255 5.20582C -1.5024 5.206 -1.50196 5.20649 -1.50164 5.20685C -1.50128 5.20727 -1.50032 5.20835 -1.49959 5.20919C -1.49864 5.21026 -1.49641 5.21279 -1.4945 5.21494C -1.49176 5.21803 -1.486 5.22451 -1.4805 5.23066C -1.47168 5.24051 -1.45499 5.25903 -1.43735 5.27835C -1.40656 5.31205 -1.35288 5.36991 -1.2919 5.43387C -1.17942 5.5516 -0.993667 5.73971 -0.775553 5.94634C -0.360349 6.3383 0.30671 6.91645 1.07802 7.46341C 2.60629 8.54077 4.91823 9.77168 7.61499 9.77168L 7.61499 5.77168ZM 0 3.88584C 1.50338 5.20487 1.503 5.20531 1.50263 5.20573C 1.50253 5.20585 1.50217 5.20625 1.50196 5.20649C 1.50212 5.20631 1.50051 5.20814 1.50083 5.20777C 1.50095 5.20764 1.49923 5.20959 1.49948 5.20931C 1.49891 5.20995 1.49924 5.20957 1.50032 5.20836C 1.50466 5.20351 1.50762 5.20021 1.51599 5.19107C 1.53718 5.16785 1.56086 5.14223 1.60132 5.09993C 1.69171 5.00515 1.80517 4.88968 1.9724 4.73201C 2.32787 4.39538 2.776 4.00207 3.38273 3.57757C 4.61055 2.71201 6.1061 2 7.61499 2L 7.61499 -2C 4.91823 -2 2.60629 -0.769092 1.07802 0.308272C 0.30671 0.855231 -0.360349 1.43338 -0.775553 1.82534C -0.993667 2.03197 -1.17942 2.22008 -1.2919 2.33781C -1.35288 2.40177 -1.40656 2.45963 -1.43735 2.49333C -1.45499 2.51265 -1.47168 2.53117 -1.4805 2.54102C -1.486 2.54717 -1.49176 2.55365 -1.4945 2.55674C -1.49641 2.55889 -1.49864 2.56142 -1.49959 2.56249C -1.50032 2.56333 -1.50128 2.56441 -1.50164 2.56483C -1.50196 2.56519 -1.5024 2.56569 -1.50255 2.56587C -1.50297 2.56634 -1.50338 2.56681 0 3.88584ZM 7.61499 2C 9.12387 2 10.6194 2.71201 11.8472 3.57757C 12.454 4.00207 12.9021 4.39538 13.2576 4.73201C 13.4248 4.88968 13.5383 5.00515 13.6287 5.09993C 13.6691 5.14223 13.6928 5.16785 13.714 5.19107C 13.7224 5.20021 13.7253 5.20351 13.7297 5.20836C 13.7307 5.20957 13.7311 5.20995 13.7305 5.20931C 13.7307 5.20959 13.729 5.20764 13.7291 5.20777C 13.7295 5.20814 13.7279 5.20631 13.728 5.20649C 13.7278 5.20625 13.7274 5.20585 13.7273 5.20573C 13.727 5.20531 13.7266 5.20487 15.23 3.88584C 16.7334 2.56681 16.7329 2.56634 16.7325 2.56587C 16.7324 2.56569 16.7319 2.56519 16.7316 2.56483C 16.7312 2.56441 16.7303 2.56333 16.7296 2.56249C 16.7286 2.56142 16.7264 2.55889 16.7245 2.55674C 16.7217 2.55365 16.716 2.54717 16.7105 2.54102C 16.7017 2.53117 16.685 2.51265 16.6673 2.49333C 16.6365 2.45963 16.5829 2.40177 16.5219 2.33781C 16.4094 2.22008 16.2236 2.03197 16.0055 1.82534C 15.5903 1.43338 14.9233 0.855231 14.152 0.308272C 12.6237 -0.769092 10.3117 -2 7.61499 -2L 7.61499 2Z"/>
<path id="path4_fill" d="M 15.5434 3.80749C 15.5434 3.80749 12.0639 7.61499 7.77168 7.61499C 3.4795 7.61499 0 3.80749 0 3.80749C 0 3.80749 3.4795 0 7.77168 0C 12.0639 0 15.5434 3.80749 15.5434 3.80749Z"/>
<path id="path5_stroke_2x" d="M 15.5434 3.80749L 17.0197 5.15669L 18.2527 3.80749L 17.0197 2.4583L 15.5434 3.80749ZM 0 3.80749L -1.47637 2.4583L -2.70934 3.80749L -1.47637 5.15669L 0 3.80749ZM 15.5434 3.80749C 14.067 2.4583 14.0674 2.45787 14.0678 2.45746C 14.0679 2.45734 14.0682 2.45694 14.0685 2.4567C 14.0683 2.45688 14.0699 2.45507 14.0696 2.45544C 14.0695 2.45557 14.0713 2.45363 14.071 2.45391C 14.0716 2.45329 14.0713 2.45362 14.0702 2.45479C 14.0658 2.45953 14.0628 2.46273 14.0543 2.47166C 14.0327 2.4944 14.0085 2.51945 13.9673 2.56088C 13.875 2.65373 13.7592 2.76692 13.5884 2.92148C 13.2254 3.2515 12.7667 3.63801 12.1461 4.05494C 10.8578 4.93274 9.46615 5.66664 7.77168 5.61499L 7.77168 9.61499C 10.3694 9.56333 12.8636 8.39349 14.3881 7.36754C 15.1739 6.83259 15.8533 6.26723 16.2768 5.88335C 16.4993 5.68095 16.6889 5.49668 16.8037 5.38132C 16.8659 5.31863 16.9207 5.26188 16.9522 5.22884C 16.9702 5.20989 16.9873 5.19171 16.9963 5.18204C 17.0019 5.176 17.0078 5.16963 17.0106 5.16659C 17.0126 5.16448 17.0149 5.162 17.0158 5.16094C 17.0166 5.16011 17.0176 5.15905 17.018 5.15863C 17.0183 5.15828 17.0187 5.15779 17.0189 5.15762C 17.0193 5.15714 17.0197 5.15669 15.5434 3.80749ZM 7.77168 5.61499C 6.07721 5.66664 4.68557 4.93274 3.39728 4.05494C 2.77668 3.63801 2.31791 3.2515 1.95492 2.92148C 1.78418 2.76692 1.66833 2.65373 1.57609 2.56088C 1.53482 2.51945 1.5107 2.4944 1.48909 2.47166C 1.48057 2.46273 1.47758 2.45953 1.47317 2.45479C 1.47207 2.45362 1.47177 2.45329 1.47235 2.45391C 1.47209 2.45363 1.47387 2.45557 1.47375 2.45544C 1.47342 2.45507 1.47507 2.45688 1.47491 2.4567C 1.47513 2.45694 1.47549 2.45734 1.4756 2.45746C 1.47598 2.45787 1.47637 2.4583 0 3.80749C -1.47637 5.15669 -1.47596 5.15714 -1.47552 5.15762C -1.47536 5.15779 -1.47491 5.15828 -1.47459 5.15863C -1.47421 5.15905 -1.47324 5.16011 -1.47248 5.16094C -1.47151 5.162 -1.46922 5.16448 -1.46727 5.16659C -1.46447 5.16963 -1.45856 5.176 -1.45294 5.18204C -1.44393 5.19171 -1.42685 5.20989 -1.40884 5.22884C -1.37739 5.26188 -1.32256 5.31863 -1.2603 5.38132C -1.14549 5.49668 -0.955971 5.68095 -0.733445 5.88335C -0.309901 6.26723 0.369471 6.83259 1.15526 7.36754C 2.67977 8.39349 5.17397 9.56333 7.77168 9.61499L 7.77168 5.61499ZM 0 3.80749C 1.47637 5.15669 1.47598 5.15711 1.4756 5.15753C 1.47549 5.15765 1.47513 5.15805 1.47491 5.15829C 1.47507 5.15811 1.47342 5.15991 1.47375 5.15955C 1.47387 5.15942 1.47209 5.16136 1.47235 5.16108C 1.47177 5.1617 1.47207 5.16136 1.47317 5.16019C 1.47758 5.15546 1.48057 5.15226 1.48909 5.14332C 1.5107 5.12059 1.53482 5.09553 1.57609 5.05411C 1.66833 4.96126 1.78418 4.84806 1.95492 4.69351C 2.31791 4.36348 2.77668 3.97697 3.39728 3.56005C 4.68557 2.68225 6.07721 1.94834 7.77168 2L 7.77168 -2C 5.17397 -1.94834 2.67977 -0.7785 1.15526 0.247446C 0.369471 0.782391 -0.309901 1.34776 -0.733445 1.73163C -0.955971 1.93403 -1.14549 2.1183 -1.2603 2.23367C -1.32256 2.29636 -1.37739 2.3531 -1.40884 2.38614C -1.42685 2.4051 -1.44393 2.42328 -1.45294 2.43295C -1.45856 2.43898 -1.46447 2.44535 -1.46727 2.44839C -1.46922 2.4505 -1.47151 2.45299 -1.47248 2.45405C -1.47324 2.45487 -1.47421 2.45594 -1.47459 2.45635C -1.47491 2.45671 -1.47536 2.45719 -1.47552 2.45737C -1.47596 2.45784 -1.47637 2.4583 0 3.80749ZM 7.77168 2C 9.46615 1.94834 10.8578 2.68225 12.1461 3.56005C 12.7667 3.97697 13.2254 4.36348 13.5884 4.69351C 13.7592 4.84806 13.875 4.96126 13.9673 5.05411C 14.0085 5.09553 14.0327 5.12059 14.0543 5.14332C 14.0628 5.15226 14.0658 5.15546 14.0702 5.16019C 14.0713 5.16136 14.0716 5.1617 14.071 5.16108C 14.0713 5.16136 14.0695 5.15942 14.0696 5.15955C 14.0699 5.15991 14.0683 5.15811 14.0685 5.15829C 14.0682 5.15805 14.0679 5.15765 14.0678 5.15753C 14.0674 5.15711 14.067 5.15669 15.5434 3.80749C 17.0197 2.4583 17.0193 2.45784 17.0189 2.45737C 17.0187 2.45719 17.0183 2.45671 17.018 2.45635C 17.0176 2.45594 17.0166 2.45487 17.0158 2.45405C 17.0149 2.45299 17.0126 2.4505 17.0106 2.44839C 17.0078 2.44535 17.0019 2.43898 16.9963 2.43295C 16.9873 2.42328 16.9702 2.4051 16.9522 2.38614C 16.9207 2.3531 16.8659 2.29636 16.8037 2.23367C 16.6889 2.1183 16.4993 1.93403 16.2768 1.73163C 15.8533 1.34776 15.1739 0.782391 14.3881 0.247446C 12.8636 -0.7785 10.3694 -1.94834 7.77168 -2L 7.77168 2Z"/>
<path id="path6_stroke" d="M -1 0L -1 14.8189L 1 14.8189L 1 0L -1 0Z"/>
<path id="path7_stroke" d="M 8.16642 16.5277C 4.27384 16.5277 1 13.1194 1 8.76386L -1 8.76386C -1 14.0886 3.03862 18.5277 8.16642 18.5277L 8.16642 16.5277ZM 1 8.76386C 1 4.40833 4.27384 1 8.16642 1L 8.16642 -1C 3.03862 -1 -1 3.4391 -1 8.76386L 1 8.76386Z"/>
<path id="path8_stroke" d="M 1 8.76386C 1 4.40833 4.27384 1 8.16642 1L 8.16642 -1C 3.03862 -1 -1 3.4391 -1 8.76386L 1 8.76386ZM -1 8.76386L -1 19.5036L 1 19.5036L 1 8.76386L -1 8.76386Z"/>
<path id="path9_fill" d="M 0 0L 28.1209 0L 23.4341 25.6861L 4.68681 25.6861L 0 0Z"/>
<path id="path10_stroke_2x" d="M 0 0L 0 -2L -2.39795 -2L -1.96752 0.359003L 0 0ZM 28.1209 0L 30.0884 0.359003L 30.5188 -2L 28.1209 -2L 28.1209 0ZM 23.4341 25.6861L 23.4341 27.6861L 25.1022 27.6861L 25.4016 26.0451L 23.4341 25.6861ZM 4.68681 25.6861L 2.7193 26.0451L 3.01872 27.6861L 4.68681 27.6861L 4.68681 25.6861ZM 0 2L 28.1209 2L 28.1209 -2L 0 -2L 0 2ZM 26.1534 -0.359003L 21.4665 25.3271L 25.4016 26.0451L 30.0884 0.359003L 26.1534 -0.359003ZM 23.4341 23.6861L 4.68681 23.6861L 4.68681 27.6861L 23.4341 27.6861L 23.4341 23.6861ZM 6.65433 25.3271L 1.96752 -0.359003L -1.96752 0.359003L 2.7193 26.0451L 6.65433 25.3271Z"/>
<path id="path11_fill" d="M 0 0L 33.7451 0L 33.7451 7.9034L 0 7.9034L 0 0Z"/>
<path id="path12_stroke_2x" d="M 0 0L 0 -2L -2 -2L -2 0L 0 0ZM 33.7451 0L 35.7451 0L 35.7451 -2L 33.7451 -2L 33.7451 0ZM 33.7451 7.9034L 33.7451 9.9034L 35.7451 9.9034L 35.7451 7.9034L 33.7451 7.9034ZM 0 7.9034L -2 7.9034L -2 9.9034L 0 9.9034L 0 7.9034ZM 0 2L 33.7451 2L 33.7451 -2L 0 -2L 0 2ZM 31.7451 0L 31.7451 7.9034L 35.7451 7.9034L 35.7451 0L 31.7451 0ZM 33.7451 5.9034L 0 5.9034L 0 9.9034L 33.7451 9.9034L 33.7451 5.9034ZM 2 7.9034L 2 0L -2 0L -2 7.9034L 2 7.9034Z"/>
</defs>
</svg>
